<?xml version="1.0" encoding="UTF-8" ?>
<!DOCTYPE svg PUBLIC "-//W3C//DTD SVG 1.1//EN" "http://www.w3.org/Graphics/SVG/1.1/DTD/svg11.dtd">
<svg width="1049pt" height="446pt" viewBox="0 0 1049 446" version="1.1" xmlns="http://www.w3.org/2000/svg">
<g id="#ffffffff">
</g>
<g id="#01bfe3ff">
<path fill="#01bfe3" opacity="1.00" d=" M 197.23 36.26 C 228.93 29.63 262.32 31.21 293.19 41.00 C 291.98 41.15 290.76 41.29 289.54 41.33 C 262.36 41.37 235.18 41.32 208.00 41.35 C 197.64 41.24 187.26 41.55 176.90 41.10 C 183.76 39.84 190.29 37.19 197.23 36.26 Z" />
<path fill="#01bfe3" opacity="1.00" d=" M 146.49 54.27 C 147.88 53.45 149.51 53.35 151.08 53.31 C 202.05 53.34 253.03 53.31 304.00 53.32 C 310.66 53.43 317.33 53.10 323.98 53.47 C 333.27 57.50 341.75 63.18 350.05 68.94 C 351.28 69.72 352.27 70.79 353.13 71.95 C 349.06 71.90 345.00 71.79 340.94 72.12 C 324.98 71.52 308.99 72.01 293.01 71.85 C 240.31 71.84 187.62 71.88 134.92 71.84 C 129.60 72.11 124.28 72.08 118.97 71.58 C 127.72 65.15 136.97 59.46 146.49 54.27 Z" />
<path fill="#01bfe3" opacity="1.00" d=" M 103.02 85.07 C 105.10 82.84 108.35 84.21 110.99 84.03 C 121.00 83.91 130.99 84.38 140.99 83.81 C 149.64 84.20 158.30 84.18 166.96 83.88 C 176.33 84.48 185.71 83.28 195.08 84.13 C 217.76 84.19 240.40 83.68 263.07 84.12 C 272.36 83.67 281.68 84.54 290.97 83.87 C 298.97 84.46 306.98 83.50 314.98 84.15 C 329.64 84.00 344.29 83.96 358.95 84.16 C 362.34 83.94 365.78 83.56 369.12 84.48 C 374.99 90.51 381.07 96.42 386.28 103.05 C 386.51 103.66 386.98 104.88 387.22 105.49 C 331.13 105.48 275.05 105.49 218.97 105.49 C 173.97 105.39 128.97 105.68 83.98 105.34 C 89.78 98.08 96.30 91.46 103.02 85.07 Z" />
<path fill="#01bfe3" opacity="1.00" d=" M 77.15 114.52 C 183.12 114.40 289.09 114.42 395.06 114.50 C 400.10 121.93 405.01 129.48 409.04 137.53 C 380.02 137.93 350.99 137.58 321.97 137.70 C 259.97 137.70 197.98 137.70 135.98 137.70 C 111.68 137.59 87.36 137.93 63.06 137.51 C 67.02 129.43 72.04 121.92 77.15 114.52 Z" />
<path fill="#01bfe3" opacity="1.00" d=" M 46.45 181.59 C 49.52 169.61 53.27 157.72 58.71 146.58 C 174.92 146.68 291.13 146.59 407.34 146.62 C 401.06 158.40 394.14 169.84 387.79 181.58 C 381.91 182.73 375.97 181.73 370.06 182.11 C 355.39 181.39 340.71 182.32 326.05 181.79 C 317.19 182.05 308.21 182.90 299.41 181.49 C 296.52 178.72 294.34 175.31 291.46 172.52 C 274.35 155.41 249.14 146.55 225.09 150.17 C 204.52 153.13 185.30 164.64 173.12 181.50 C 171.78 181.78 170.44 182.24 169.06 182.08 C 158.05 181.36 147.02 182.30 136.01 181.83 C 117.99 181.87 99.96 181.99 81.95 182.00 C 70.12 181.55 58.28 182.43 46.45 181.59 Z" />
<path fill="#01bfe3" opacity="1.00" d=" M 44.64 188.40 C 46.07 188.10 47.50 187.75 48.97 187.76 C 88.67 187.77 128.38 187.81 168.09 187.74 C 167.40 191.17 165.37 194.08 164.06 197.29 C 159.28 208.46 157.06 220.83 158.02 232.96 C 157.94 233.58 157.79 234.82 157.72 235.43 C 118.96 235.23 80.19 235.33 41.43 235.40 C 39.84 227.33 41.04 219.07 41.47 210.94 C 41.91 203.35 43.46 195.89 44.64 188.40 Z" />
<path fill="#01bfe3" opacity="1.00" d=" M 303.80 188.31 C 306.52 188.02 309.24 187.75 311.98 187.74 C 333.98 187.79 355.98 187.78 377.98 187.75 C 380.02 187.75 382.04 188.11 384.07 188.42 C 374.71 203.86 366.25 219.83 357.12 235.41 C 342.83 235.27 328.54 235.33 314.25 235.39 C 315.03 222.89 313.51 210.11 308.62 198.51 C 307.21 195.02 305.18 191.82 303.80 188.31 Z" />
<path fill="#01bfe3" opacity="1.00" d=" M 395.22 308.50 C 406.93 287.74 418.61 266.95 430.47 246.28 C 427.03 285.97 410.52 324.22 384.78 354.55 C 383.54 356.11 382.39 358.25 380.01 357.76 C 291.66 357.91 203.31 357.78 114.96 357.83 C 108.65 358.11 102.33 357.44 96.03 358.11 C 93.94 358.34 91.85 358.00 89.81 357.56 C 77.97 343.74 67.54 328.64 59.84 312.11 C 59.42 310.94 59.28 309.69 59.05 308.49 C 171.10 308.53 283.16 308.51 395.22 308.50 Z" />
<path fill="#01bfe3" opacity="1.00" d=" M 95.67 364.60 C 97.45 364.24 99.23 363.76 101.07 363.70 C 185.39 363.74 269.72 363.70 354.05 363.71 C 361.42 363.76 368.80 363.58 376.18 363.89 C 349.74 391.74 314.50 410.99 276.98 418.95 C 269.25 420.56 261.41 421.55 253.60 422.64 C 245.55 424.23 237.21 423.07 229.04 423.47 C 214.33 422.34 199.58 420.46 185.30 416.56 C 153.58 408.10 124.02 391.47 100.54 368.48 C 99.11 366.95 97.52 365.58 95.67 364.60 Z" />
</g>
<g id="#0b499cff">
<path fill="#0b499c" opacity="1.00" d=" M 755.59 141.90 C 775.30 139.58 795.73 142.00 813.91 150.15 C 830.79 157.53 845.75 169.92 854.95 186.00 C 862.05 198.36 865.39 212.84 864.27 227.06 C 862.90 247.24 852.50 266.12 837.76 279.68 C 810.58 304.90 770.10 313.52 734.52 304.26 C 715.14 299.13 696.86 288.44 684.40 272.55 C 673.89 259.49 668.07 242.76 668.34 226.00 C 668.66 206.73 677.13 188.14 690.20 174.18 C 707.09 155.86 731.05 144.95 755.59 141.90 M 768.60 171.90 C 750.65 173.21 733.27 181.98 721.83 195.90 C 713.28 206.46 708.02 220.21 709.57 233.90 C 710.53 243.46 714.79 252.64 721.49 259.53 C 731.34 270.02 745.90 275.15 760.09 275.40 C 778.67 275.54 797.19 267.64 809.81 253.99 C 816.98 246.25 822.23 236.60 824.07 226.17 C 826.79 212.20 822.19 196.99 812.04 186.99 C 800.85 175.62 784.28 170.76 768.60 171.90 Z" />
<path fill="#0b499c" opacity="1.00" d=" M 416.77 145.29 C 437.62 145.08 458.47 145.26 479.33 145.19 C 475.43 151.47 472.11 158.10 468.24 164.39 C 456.73 164.85 445.16 164.49 433.63 164.54 C 414.02 199.37 394.17 234.06 374.54 268.89 C 258.03 268.81 141.53 268.85 25.02 268.86 C 24.35 268.76 23.01 268.56 22.34 268.46 C 27.62 260.11 32.24 251.35 37.12 242.75 C 145.30 242.68 253.49 242.89 361.67 242.65 C 379.94 210.14 398.57 177.84 416.77 145.29 Z" />
<path fill="#0b499c" opacity="1.00" d=" M 567.36 145.25 C 596.16 145.24 624.98 145.00 653.78 145.37 C 646.29 159.15 638.73 172.91 631.61 186.88 C 646.79 225.00 662.10 263.06 677.13 301.23 C 660.89 301.02 644.65 301.34 628.42 301.07 C 624.86 289.84 620.90 278.74 617.42 267.47 C 593.24 267.43 569.05 267.43 544.86 267.48 C 538.75 278.75 532.79 290.13 526.40 301.24 C 510.65 301.13 494.91 301.11 479.16 301.26 C 497.22 268.45 516.04 236.06 534.37 203.40 C 545.39 184.03 556.35 164.62 567.36 145.25 M 559.75 240.12 C 575.88 240.13 592.01 240.15 608.14 240.11 C 602.54 221.71 596.02 203.61 589.21 185.62 C 579.41 203.80 569.53 221.93 559.75 240.12 Z" />
<path fill="#0b499c" opacity="1.00" d=" M 831.28 144.88 C 858.18 145.37 885.10 144.94 912.01 145.10 C 927.41 144.94 942.83 145.22 958.23 144.92 C 958.59 145.23 959.32 145.84 959.68 146.15 C 985.92 146.06 1012.16 146.07 1038.40 146.17 C 1032.27 156.43 1026.62 166.97 1020.49 177.22 C 1000.24 177.08 979.98 177.20 959.73 177.16 C 958.89 176.67 958.06 176.18 957.24 175.71 C 957.05 214.16 957.23 252.61 957.16 291.05 C 957.07 294.47 957.54 297.94 956.69 301.30 C 942.53 300.71 928.33 300.67 914.18 301.25 C 913.73 259.12 914.37 216.96 913.87 174.83 C 896.98 175.40 880.06 175.05 863.16 175.00 C 854.92 162.73 843.73 152.74 831.28 144.88 Z" />
<path fill="#0b499c" opacity="1.00" d=" M 437.19 170.43 C 446.41 170.54 455.63 170.40 464.86 170.53 C 441.50 211.64 418.18 252.78 394.88 293.92 C 393.46 296.39 392.08 298.89 390.51 301.26 C 263.35 301.04 136.18 301.27 9.02 301.15 C 7.32 301.00 5.76 301.69 4.20 302.25 C 8.20 292.65 14.06 283.98 19.00 274.85 C 138.67 274.80 258.34 274.91 378.01 274.80 C 397.64 239.96 417.41 205.19 437.19 170.43 Z" />
</g>
</svg>
