<?xml version="1.0" encoding="UTF-8" ?>
<!DOCTYPE svg PUBLIC "-//W3C//DTD SVG 1.1//EN" "http://www.w3.org/Graphics/SVG/1.1/DTD/svg11.dtd">
<svg width="1600pt" height="200pt" viewBox="0 0 1600 200" version="1.1" xmlns="http://www.w3.org/2000/svg">
<g id="#ffffffff">
<path fill="#ffffff" opacity="1.00" d=" M 497.08 98.03 C 502.56 98.06 508.04 98.04 513.53 98.05 C 513.49 103.73 513.51 109.42 513.51 115.10 C 518.99 115.08 524.48 115.11 529.96 115.08 C 529.92 121.09 529.94 127.10 529.95 133.11 C 524.46 133.11 518.98 133.11 513.50 133.11 C 513.54 146.41 513.45 159.71 513.55 173.00 C 546.98 175.51 580.24 179.76 613.51 183.78 C 665.31 190.31 717.88 193.14 769.89 187.37 C 791.81 185.10 813.50 181.17 835.11 176.96 C 857.59 172.56 880.16 168.24 903.06 166.76 C 903.05 158.84 903.01 150.92 903.07 143.00 C 903.11 135.08 907.62 127.42 914.42 123.39 C 921.43 119.10 930.73 118.95 937.89 122.98 C 945.06 126.91 949.90 134.81 949.93 143.02 C 949.99 151.22 949.96 159.42 949.92 167.62 C 995.36 171.99 1040.51 179.70 1086.20 181.27 C 1085.28 178.81 1085.23 176.16 1086.16 173.70 C 1084.11 169.55 1081.38 164.85 1083.32 160.13 C 1085.12 154.65 1090.68 151.72 1096.04 150.76 C 1104.68 150.01 1113.96 153.72 1118.67 161.21 C 1120.93 164.69 1121.42 169.26 1120.00 173.15 C 1118.00 177.79 1113.24 180.56 1108.40 181.31 C 1111.08 181.38 1114.19 182.25 1116.50 180.35 C 1123.19 175.89 1129.92 171.49 1136.59 166.99 C 1134.73 163.99 1135.45 160.45 1138.34 158.47 C 1139.64 158.50 1140.95 158.54 1142.28 158.56 C 1144.57 160.08 1146.05 162.48 1145.68 165.31 C 1148.33 166.41 1151.04 168.85 1150.40 172.03 C 1150.12 175.27 1145.31 175.68 1143.82 173.17 C 1139.32 175.69 1135.23 178.85 1130.81 181.49 C 1154.93 180.97 1179.05 180.43 1203.16 179.47 C 1202.98 171.30 1202.99 163.12 1203.12 154.95 C 1203.37 146.82 1210.86 139.84 1218.98 140.06 C 1227.09 139.82 1234.60 146.77 1234.88 154.89 C 1235.06 162.43 1234.91 169.99 1234.94 177.54 C 1240.48 177.16 1246.00 176.53 1251.54 176.09 C 1250.57 173.17 1249.96 170.13 1250.04 167.04 C 1250.07 154.00 1250.01 140.96 1250.07 127.92 C 1249.97 120.71 1254.02 113.71 1260.20 110.04 C 1266.88 105.92 1275.92 106.08 1282.46 110.45 C 1288.28 114.22 1292.03 120.99 1291.94 127.96 C 1291.90 142.23 1292.10 156.51 1291.82 170.78 C 1297.50 169.97 1303.19 169.26 1308.91 168.78 C 1331.78 166.92 1354.66 169.88 1377.30 172.91 C 1380.20 159.15 1383.26 145.43 1386.06 131.65 C 1380.42 130.51 1374.80 129.24 1369.17 128.09 C 1370.28 122.19 1371.85 116.38 1372.81 110.45 C 1378.51 111.63 1384.19 112.95 1389.92 114.03 C 1391.02 108.48 1392.29 102.97 1393.38 97.41 C 1398.74 98.59 1404.12 99.73 1409.51 100.86 C 1408.34 106.41 1407.04 111.92 1406.07 117.50 C 1411.38 118.72 1416.73 119.80 1422.07 120.96 C 1420.78 126.82 1419.50 132.70 1418.31 138.58 C 1412.82 137.49 1407.40 135.95 1401.84 135.30 C 1401.61 137.21 1401.42 139.14 1400.97 141.02 C 1398.34 152.44 1396.18 163.96 1393.51 175.37 C 1406.25 177.35 1418.97 179.46 1431.71 181.40 C 1433.20 173.94 1435.20 166.60 1436.68 159.14 C 1432.57 158.47 1428.55 157.39 1424.50 156.47 C 1425.54 152.30 1426.46 148.09 1427.45 143.90 C 1431.52 144.91 1435.63 145.84 1439.74 146.76 C 1440.42 142.76 1441.55 138.85 1442.24 134.85 C 1446.05 135.68 1449.81 136.76 1453.69 137.29 C 1453.20 141.40 1451.98 145.37 1451.15 149.40 C 1454.79 150.26 1458.44 151.04 1462.07 151.99 C 1460.90 156.09 1460.17 160.30 1459.06 164.42 C 1455.40 163.64 1451.78 162.68 1448.11 162.05 C 1446.75 169.17 1444.90 176.19 1443.35 183.27 C 1469.39 187.26 1495.58 191.06 1521.97 191.56 C 1548.05 192.06 1574.06 189.62 1600.00 187.19 L 1600.00 200.00 L 0.00 200.00 L 0.00 181.45 C 20.49 183.27 41.05 184.07 61.58 185.21 C 60.39 179.16 58.97 173.16 57.92 167.09 C 56.91 154.51 65.48 142.39 77.17 138.11 C 85.29 134.77 94.65 135.46 102.49 139.24 C 109.93 143.04 115.77 150.19 117.28 158.49 C 119.21 168.10 121.32 177.68 123.16 187.31 C 148.54 187.84 173.91 188.19 199.30 188.17 C 204.22 171.65 208.80 155.03 213.51 138.45 C 209.14 136.21 203.94 135.37 199.27 133.62 C 201.41 128.20 203.48 122.76 205.59 117.34 C 210.00 119.35 214.45 121.28 218.88 123.27 C 220.58 118.06 222.36 112.88 224.07 107.68 C 229.07 109.60 234.04 111.58 239.08 113.41 C 237.54 119.18 235.54 124.83 233.63 130.49 C 238.13 132.38 242.70 134.07 247.24 135.86 C 245.71 140.62 244.13 145.37 242.63 150.14 C 237.98 148.57 233.45 146.69 228.85 145.01 C 224.38 159.29 219.95 173.59 215.43 187.87 C 247.55 187.50 279.68 186.45 311.74 184.45 C 310.56 177.01 311.26 169.44 311.07 161.94 C 310.87 152.45 314.93 142.47 323.09 137.18 C 329.17 133.13 337.64 133.25 343.64 137.41 C 350.81 142.14 354.65 150.66 355.38 159.02 C 355.54 166.42 355.42 173.83 355.39 181.23 C 358.67 180.82 361.97 180.54 365.26 180.20 C 365.75 178.75 366.26 177.31 366.75 175.85 C 368.98 170.29 370.06 163.85 374.78 159.70 C 378.92 155.85 385.53 154.08 390.58 157.27 C 397.30 161.04 399.19 169.61 398.21 176.74 C 418.09 174.42 437.97 171.64 458.00 170.99 C 471.03 170.46 484.08 171.04 497.10 171.70 C 497.09 158.84 497.10 145.98 497.10 133.11 C 491.28 133.11 485.45 133.11 479.63 133.11 C 479.65 127.10 479.65 121.10 479.63 115.09 C 485.45 115.09 491.28 115.09 497.10 115.09 C 497.09 109.41 497.12 103.72 497.08 98.03 M 1091.41 158.48 C 1088.92 159.98 1088.51 163.32 1090.52 165.40 C 1092.66 166.80 1095.33 166.80 1097.40 165.22 C 1098.10 163.46 1097.76 161.64 1097.30 159.88 C 1095.54 158.66 1093.52 158.17 1091.41 158.48 M 1104.78 163.62 C 1102.94 165.63 1102.80 169.16 1105.55 170.46 C 1108.43 172.75 1112.54 170.29 1112.52 166.78 C 1111.39 163.46 1107.85 162.52 1104.78 163.62 Z" />
</g>
</svg>
