<?xml version="1.0" encoding="UTF-8" ?>
<!DOCTYPE svg PUBLIC "-//W3C//DTD SVG 1.1//EN" "http://www.w3.org/Graphics/SVG/1.1/DTD/svg11.dtd">
<svg width="1600pt" height="240pt" viewBox="0 0 1600 240" version="1.1" xmlns="http://www.w3.org/2000/svg">
<g id="#272727ff">
<path fill="#272727" opacity="1.00" d=" M 782.25 29.66 C 783.38 30.03 784.52 30.42 785.67 30.82 C 786.87 30.95 788.08 31.08 789.30 31.22 C 791.42 31.78 793.58 32.22 795.71 32.80 C 796.82 32.90 797.95 32.99 799.09 33.09 C 799.06 35.31 799.03 37.57 798.31 39.70 C 798.09 40.57 797.88 41.43 797.68 42.29 C 797.23 43.96 796.99 45.66 796.79 47.37 C 796.52 47.97 795.97 49.18 795.69 49.78 C 797.55 50.36 799.43 50.91 801.33 51.37 C 802.97 51.72 804.62 52.03 806.28 52.35 C 807.85 52.72 809.44 52.99 811.05 53.26 C 810.98 54.93 810.92 56.60 810.83 58.26 C 810.19 60.38 809.77 62.55 809.32 64.70 C 809.02 66.37 808.71 68.04 808.28 69.68 C 808.19 70.16 808.02 71.13 807.94 71.61 C 807.02 72.08 806.11 72.56 805.22 73.05 C 804.81 72.46 804.00 71.29 803.59 70.70 C 802.46 71.09 801.33 71.49 800.23 71.90 C 799.84 71.45 799.05 70.55 798.66 70.10 C 796.38 70.09 794.13 69.74 792.02 68.85 C 791.96 69.46 791.83 70.69 791.77 71.31 C 791.19 73.41 790.79 75.55 790.35 77.68 C 789.99 79.02 789.63 80.36 789.25 81.69 C 789.06 82.55 788.88 83.42 788.70 84.28 C 788.27 85.94 787.96 87.62 787.69 89.31 C 787.21 91.44 786.79 93.59 786.24 95.71 C 786.06 96.90 785.91 98.10 785.77 99.30 C 785.21 101.43 784.78 103.59 784.23 105.72 C 784.15 106.26 783.99 107.33 783.92 107.87 C 784.51 107.97 785.70 108.18 786.29 108.28 C 788.53 109.03 790.91 109.06 793.26 109.25 C 795.19 109.90 797.24 110.06 799.27 110.30 C 801.22 110.86 803.24 111.06 805.27 111.30 C 807.22 111.86 809.24 112.06 811.26 112.31 C 814.14 113.21 817.29 112.70 820.09 113.96 C 820.69 112.10 821.21 110.22 821.74 108.33 C 821.98 106.64 822.24 104.94 822.70 103.28 C 822.88 102.42 823.07 101.56 823.28 100.71 C 823.78 98.38 824.25 96.03 825.05 93.78 C 824.71 93.38 824.03 92.57 823.69 92.17 C 822.21 91.94 820.75 91.70 819.30 91.43 C 817.78 90.96 816.27 90.47 814.79 89.96 C 814.32 90.30 813.38 90.97 812.91 91.31 C 812.91 88.95 812.91 86.55 813.69 84.29 C 813.89 83.43 814.10 82.57 814.32 81.71 C 814.71 80.13 814.98 78.52 815.26 76.91 C 817.42 76.93 819.63 76.98 821.71 77.69 C 822.56 77.89 823.41 78.10 824.29 78.30 C 825.35 78.73 826.46 78.97 827.61 79.03 C 829.14 77.55 829.12 75.28 829.69 73.36 C 830.06 71.45 830.63 69.60 831.24 67.76 C 833.07 67.97 834.92 68.19 836.72 68.68 C 837.56 68.89 838.42 69.10 839.28 69.32 C 840.92 69.75 842.58 70.00 844.28 70.24 C 843.99 70.83 843.41 72.02 843.12 72.62 C 843.01 73.52 842.92 74.43 842.84 75.34 C 842.20 77.30 841.60 79.28 840.90 81.22 C 841.26 81.64 841.97 82.46 842.33 82.88 C 844.15 83.01 846.01 83.09 847.74 83.78 C 848.87 83.89 850.01 84.00 851.16 84.10 C 851.01 85.99 850.86 87.90 850.33 89.73 C 850.10 90.58 849.88 91.43 849.68 92.29 C 849.08 94.22 848.93 96.24 848.83 98.25 C 847.65 97.94 846.49 97.63 845.34 97.30 C 843.31 96.96 841.14 95.59 839.17 96.85 C 839.03 96.57 838.76 96.02 838.62 95.74 C 838.25 96.16 837.51 97.00 837.14 97.42 C 837.00 99.20 836.83 100.99 836.30 102.71 C 836.10 103.58 835.92 104.44 835.75 105.31 C 835.35 106.64 834.99 107.98 834.65 109.32 C 834.21 111.59 833.79 113.87 833.03 116.06 C 834.41 116.08 835.82 116.11 837.23 116.17 C 839.67 116.96 842.27 117.04 844.73 117.78 C 846.56 117.94 848.41 118.06 850.26 118.23 C 852.99 119.24 856.01 118.76 858.75 119.79 C 860.91 119.96 863.08 120.04 865.26 120.20 C 867.79 121.23 870.57 121.02 873.25 121.20 C 876.75 122.60 880.59 121.79 884.25 122.16 C 888.85 124.24 894.13 121.77 898.74 123.83 C 912.23 124.11 925.76 124.12 939.25 123.83 C 944.38 122.00 949.94 123.58 955.25 122.83 C 959.53 120.86 964.47 123.15 968.75 121.16 C 971.52 120.98 974.30 121.14 977.08 120.86 C 986.05 118.61 995.33 121.19 1004.18 122.94 C 1009.98 124.64 1016.07 123.04 1021.96 124.08 C 1029.60 125.64 1037.50 123.58 1045.11 125.51 C 1043.40 120.94 1042.83 116.06 1041.55 111.37 C 1040.18 106.82 1040.95 101.58 1043.55 97.61 C 1043.78 97.12 1044.23 96.15 1044.45 95.67 C 1048.42 90.10 1053.94 85.85 1060.39 83.52 C 1066.74 82.26 1073.33 80.40 1079.73 82.54 C 1088.66 83.93 1097.10 89.62 1100.60 98.07 C 1102.26 107.90 1106.06 117.35 1106.75 127.33 C 1115.50 127.69 1124.22 126.69 1132.97 126.91 C 1145.00 126.97 1157.09 126.57 1169.04 128.08 C 1173.20 127.71 1177.36 127.01 1181.57 127.39 C 1181.95 127.08 1182.70 126.46 1183.07 126.16 C 1185.13 117.52 1188.59 109.28 1190.87 100.70 C 1192.98 95.40 1193.72 89.52 1196.74 84.62 C 1192.25 83.13 1187.41 82.77 1183.06 80.90 C 1181.84 80.37 1182.38 78.84 1182.79 77.96 C 1184.35 74.72 1185.85 71.46 1187.13 68.09 C 1187.65 66.98 1188.33 64.89 1190.07 65.77 C 1194.06 66.84 1197.52 69.29 1201.53 70.29 C 1203.50 65.84 1204.96 61.18 1206.68 56.62 C 1212.30 58.44 1217.99 60.10 1223.38 62.54 C 1221.20 67.34 1219.18 72.25 1217.88 77.37 C 1222.44 78.70 1226.73 80.82 1231.38 81.89 C 1229.18 86.30 1227.78 91.03 1225.89 95.56 C 1221.43 94.08 1216.99 92.57 1212.62 90.87 C 1210.19 96.54 1208.62 102.53 1206.23 108.22 C 1204.55 114.58 1201.40 120.45 1199.94 126.87 C 1211.97 126.90 1224.00 127.01 1236.02 126.82 C 1245.01 126.02 1254.06 126.85 1263.05 126.31 C 1269.86 124.84 1276.83 126.11 1283.70 125.37 C 1287.08 124.67 1290.54 124.50 1294.01 124.66 C 1294.05 116.08 1293.99 107.50 1294.00 98.92 C 1293.93 93.21 1298.11 88.70 1302.16 85.19 C 1311.06 77.78 1325.47 79.31 1333.15 87.74 C 1335.66 91.16 1337.47 95.13 1338.71 99.18 C 1339.18 106.66 1338.79 114.18 1338.86 121.67 C 1341.39 121.38 1343.95 121.38 1346.48 121.02 C 1347.72 120.32 1347.93 118.72 1348.52 117.53 C 1350.57 112.29 1352.28 106.52 1356.50 102.56 C 1361.85 98.41 1369.96 97.65 1375.73 101.37 C 1381.27 104.62 1383.08 111.71 1382.86 117.74 C 1387.50 116.86 1392.23 116.59 1396.90 115.92 C 1409.26 114.93 1421.58 112.96 1434.01 113.35 C 1438.02 113.35 1441.93 112.05 1445.98 112.33 C 1452.17 112.60 1458.40 111.97 1464.58 112.65 C 1469.46 113.71 1474.47 113.27 1479.43 113.31 C 1479.47 102.42 1479.40 91.53 1479.47 80.65 C 1473.47 80.63 1467.47 80.66 1461.48 80.62 C 1461.49 74.86 1461.56 69.10 1461.40 63.35 C 1467.43 62.37 1473.52 63.67 1479.55 62.80 C 1479.40 58.17 1479.42 53.53 1479.44 48.89 C 1485.08 48.87 1490.72 48.87 1496.37 48.88 C 1496.37 53.60 1496.41 58.32 1496.30 63.04 C 1501.59 63.62 1507.11 62.36 1512.27 63.54 C 1512.51 69.22 1512.18 74.90 1512.37 80.58 C 1507.01 80.69 1501.66 80.60 1496.31 80.69 C 1496.52 91.99 1496.19 103.29 1496.49 114.59 C 1516.47 115.22 1536.28 118.18 1556.21 119.85 C 1567.93 120.86 1579.67 121.82 1591.33 123.48 C 1594.21 123.94 1597.38 123.43 1600.00 125.02 L 1600.00 240.00 L 0.00 240.00 L 0.00 115.84 C 1.94 115.97 3.92 116.04 5.74 116.80 C 7.91 116.96 10.09 117.04 12.26 117.20 C 15.59 118.71 19.42 117.28 22.74 118.82 C 25.58 119.00 28.42 119.00 31.26 119.18 C 34.74 120.63 38.58 119.77 42.24 120.16 C 47.17 122.30 52.80 119.71 57.74 121.83 C 64.04 122.66 70.62 120.90 76.74 122.83 C 91.90 123.11 107.09 123.12 122.25 122.83 C 127.71 120.96 133.62 122.61 139.26 121.82 C 143.06 120.26 147.26 121.32 151.24 120.84 C 154.08 119.59 157.24 120.07 160.24 119.82 C 163.56 118.28 167.39 119.70 170.73 118.22 C 172.57 118.05 174.41 117.94 176.24 117.78 C 178.48 116.93 180.90 116.95 183.25 116.76 C 185.50 115.94 187.91 115.94 190.26 115.76 C 191.91 115.28 193.60 114.96 195.29 114.64 C 197.76 114.16 200.27 113.87 202.72 113.30 C 204.73 113.06 206.74 112.83 208.72 112.37 C 210.39 112.03 212.07 111.71 213.72 111.27 C 214.91 111.08 216.09 110.91 217.28 110.74 C 218.93 110.28 220.61 109.96 222.29 109.64 C 224.75 109.15 227.25 108.85 229.71 108.35 C 231.37 108.03 233.05 107.72 234.71 107.35 C 236.39 107.03 238.07 106.72 239.72 106.27 C 240.90 106.08 242.09 105.91 243.27 105.72 C 245.22 105.13 247.25 104.93 249.26 104.70 C 251.74 104.13 254.27 103.86 256.74 103.30 C 258.76 103.05 260.81 102.91 262.74 102.22 C 264.58 102.06 266.42 101.94 268.25 101.78 C 270.80 100.78 273.56 100.98 276.24 100.80 C 280.22 99.04 284.75 100.94 288.75 99.23 C 289.83 99.11 290.91 99.00 292.00 98.90 C 291.99 90.62 292.04 82.34 291.96 74.05 C 291.45 68.62 294.94 64.03 297.82 59.78 C 300.98 56.80 305.00 54.70 309.04 53.17 C 313.49 52.89 318.04 52.69 322.46 53.30 C 327.30 55.51 332.76 57.85 335.29 62.87 C 337.03 66.00 339.37 69.19 339.04 72.98 C 338.98 81.96 339.00 90.94 339.00 99.92 C 340.41 100.00 341.83 100.09 343.25 100.20 C 346.58 101.70 350.41 100.29 353.75 101.81 C 356.24 101.98 358.75 102.02 361.25 102.19 C 364.26 103.54 367.74 102.45 370.75 103.83 C 373.75 104.04 376.88 103.63 379.74 104.80 C 381.91 104.96 384.08 105.04 386.26 105.20 C 388.79 106.23 391.57 106.02 394.25 106.20 C 397.58 107.70 401.41 106.29 404.75 107.80 C 407.42 108.00 410.22 107.74 412.75 108.82 C 415.75 109.05 418.89 108.62 421.75 109.81 C 424.24 109.98 426.74 110.02 429.24 110.19 C 432.42 111.49 435.91 110.87 439.25 111.16 C 443.53 113.14 448.46 110.86 452.75 112.83 C 458.24 113.26 463.76 112.74 469.26 113.18 C 470.88 113.81 472.62 114.01 474.34 114.25 C 473.92 113.19 473.50 112.13 473.08 111.07 C 474.06 109.23 474.29 107.18 473.27 105.29 C 473.19 104.81 473.02 103.85 472.93 103.37 C 472.45 102.94 471.48 102.07 471.00 101.64 C 471.00 100.65 471.00 99.66 471.01 98.67 C 470.65 98.10 470.29 97.54 469.94 96.97 C 470.39 95.85 470.84 94.73 471.26 93.59 C 472.41 90.94 473.97 88.49 475.44 86.01 C 475.97 86.01 477.03 86.00 477.56 86.00 C 478.01 85.52 478.92 84.57 479.38 84.09 C 479.85 83.99 480.81 83.79 481.28 83.69 C 484.00 82.93 486.88 83.07 489.61 82.35 C 490.52 82.66 491.44 82.97 492.36 83.28 C 493.77 83.77 495.20 84.23 496.63 84.71 C 497.63 85.08 498.63 85.45 499.64 85.83 C 500.09 85.90 500.99 86.06 501.44 86.14 C 504.34 89.21 507.77 91.78 509.87 95.56 C 509.98 96.00 510.19 96.88 510.30 97.32 C 511.25 99.66 511.29 102.25 510.39 104.61 C 510.03 105.62 509.68 106.64 509.34 107.65 C 508.81 108.95 508.22 110.23 507.65 111.51 C 513.29 107.24 519.28 103.45 525.24 99.66 C 524.45 98.87 523.66 98.08 522.88 97.29 C 523.35 95.96 523.82 94.63 524.26 93.29 C 525.75 92.19 527.25 91.08 528.72 89.92 C 528.92 90.28 529.33 90.98 529.53 91.33 L 530.32 89.78 C 532.73 91.06 534.41 93.19 535.69 95.54 C 536.04 96.97 536.72 98.28 537.98 99.12 C 540.02 100.66 540.55 103.28 541.31 105.58 C 539.32 106.99 537.35 108.44 535.51 110.05 C 534.14 109.09 532.79 108.11 531.50 107.06 C 528.37 109.69 524.80 111.70 521.46 114.03 C 528.19 113.49 535.20 115.04 541.75 113.17 C 553.24 112.66 564.77 113.34 576.26 112.83 C 581.30 111.07 586.77 112.39 592.00 112.00 C 592.01 102.54 591.97 93.08 592.02 83.61 C 594.23 78.66 598.24 73.84 603.92 73.07 C 608.27 72.93 613.16 72.23 616.94 74.93 C 620.98 77.52 624.31 82.00 624.03 86.99 C 624.00 94.69 623.99 102.39 624.00 110.08 C 626.26 110.04 628.62 110.15 630.74 109.17 C 633.81 108.92 636.90 108.96 639.99 109.10 C 638.52 106.26 639.02 103.00 638.98 99.93 C 639.06 84.84 638.92 69.75 639.05 54.66 C 640.76 51.57 642.02 48.11 644.69 45.68 C 647.13 43.03 650.57 41.77 653.64 40.06 C 657.45 40.03 661.27 39.83 665.08 40.05 C 672.81 41.71 679.28 48.19 680.95 55.91 C 681.09 71.66 680.94 87.41 681.00 103.16 C 682.94 103.02 684.93 102.97 686.75 102.17 C 689.75 101.95 692.89 102.39 695.74 101.17 C 705.47 100.76 715.21 101.14 724.94 100.98 C 727.88 101.02 730.98 100.58 733.76 101.84 C 737.41 102.22 741.25 101.40 744.76 102.80 C 747.42 102.99 750.20 102.76 752.74 103.80 C 754.90 103.96 757.08 104.04 759.26 104.20 C 761.35 105.10 763.64 105.05 765.88 105.09 C 765.98 104.50 766.17 103.31 766.27 102.71 C 766.71 101.06 767.02 99.38 767.33 97.71 C 767.79 95.58 768.18 93.45 768.65 91.33 C 768.99 89.98 769.35 88.64 769.75 87.31 C 769.91 86.43 770.08 85.57 770.26 84.70 C 770.79 82.57 771.20 80.42 771.69 78.29 C 771.97 76.61 772.27 74.94 772.64 73.28 C 772.95 71.59 773.28 69.90 773.80 68.26 C 773.89 67.03 773.98 65.80 774.08 64.56 C 773.67 64.97 772.87 65.79 772.46 66.19 C 771.81 65.36 771.16 64.53 770.53 63.71 C 769.41 64.10 768.31 64.50 767.22 64.91 C 766.83 64.44 766.04 63.52 765.65 63.05 C 764.67 62.97 763.70 62.88 762.74 62.78 C 761.15 61.76 759.39 62.07 757.89 63.03 C 756.87 61.20 756.73 59.14 757.76 57.27 C 757.90 56.07 758.04 54.88 758.19 53.68 C 758.74 51.91 759.23 50.11 759.77 48.33 C 760.06 46.50 759.59 44.22 761.40 43.04 C 762.85 42.74 764.29 43.25 765.69 43.59 C 767.02 43.99 768.35 44.38 769.69 44.78 C 770.88 44.94 772.07 45.09 773.28 45.26 C 775.06 45.89 776.95 46.02 778.83 46.16 C 778.94 44.18 779.08 42.19 779.69 40.28 C 779.88 39.42 780.08 38.56 780.29 37.70 C 780.88 35.01 781.38 32.29 782.25 29.66 M 479.00 94.45 C 479.00 95.07 478.99 96.32 478.99 96.94 C 479.50 96.97 480.53 97.03 481.04 97.06 L 480.85 99.27 C 483.06 98.22 486.56 97.69 486.16 94.47 C 485.16 93.57 484.17 92.66 483.20 91.75 L 482.51 93.41 L 481.65 91.79 C 480.99 92.45 479.66 93.78 479.00 94.45 M 495.38 96.89 C 494.52 97.94 493.40 98.84 492.89 100.12 C 493.60 101.19 494.51 102.12 495.38 103.08 C 495.90 103.02 496.94 102.91 497.47 102.86 C 498.11 102.56 499.41 101.97 500.06 101.67 C 500.04 100.58 499.99 99.50 499.90 98.42 C 499.04 96.61 496.99 97.04 495.38 96.89 Z" />
</g>
</svg>
