<?xml version="1.0" encoding="UTF-8" ?>
<!DOCTYPE svg PUBLIC "-//W3C//DTD SVG 1.1//EN" "http://www.w3.org/Graphics/SVG/1.1/DTD/svg11.dtd">
<svg width="1015pt" height="1175pt" viewBox="0 0 1015 1175" version="1.1" xmlns="http://www.w3.org/2000/svg">
<g id="#fcfcfcff">
</g>
<g id="#000000ff">
<path fill="#000000" opacity="1.00" d=" M 91.49 91.22 C 94.36 91.20 97.23 91.20 100.10 91.16 C 106.40 91.01 112.71 91.52 119.00 90.97 C 121.35 91.22 123.72 91.25 126.08 91.16 C 127.69 90.89 129.32 90.93 130.93 91.15 C 135.95 91.17 140.99 91.43 146.00 90.95 C 151.98 91.36 158.02 91.39 164.00 90.93 C 167.31 91.34 170.68 91.33 174.00 90.93 C 181.64 91.39 189.35 91.36 197.00 90.94 C 200.99 91.34 205.02 91.36 209.00 90.92 C 213.64 91.43 218.31 91.16 222.97 91.13 C 228.97 91.25 234.97 91.25 240.98 91.12 C 243.98 91.22 247.00 91.32 250.00 90.93 C 262.31 91.47 274.68 91.20 287.01 91.00 C 292.34 91.31 297.69 91.20 303.03 91.13 C 310.68 91.30 318.34 91.11 325.99 91.24 C 329.36 91.33 332.83 91.31 336.01 92.61 C 336.25 92.58 336.73 92.52 336.97 92.49 C 338.33 93.15 339.72 93.77 341.09 94.44 C 341.33 94.45 341.80 94.48 342.04 94.49 C 343.31 95.36 344.62 96.18 345.94 97.00 C 348.96 99.12 351.36 101.92 353.60 104.83 L 353.32 105.65 L 354.09 105.60 C 354.78 107.37 355.54 109.10 356.36 110.82 C 358.86 118.29 359.54 126.30 358.36 134.10 C 357.81 135.38 357.30 136.68 356.79 137.97 C 355.94 140.17 354.86 142.28 353.53 144.23 C 353.56 144.56 353.62 145.21 353.65 145.54 L 352.76 145.42 C 352.29 146.36 351.82 147.31 351.36 148.25 C 350.07 149.90 348.71 151.50 347.25 153.01 C 348.08 154.04 348.94 155.07 349.79 156.11 C 351.25 158.08 352.64 160.09 353.91 162.19 L 354.57 162.46 L 354.35 163.66 L 355.60 163.57 C 355.52 164.03 355.36 164.93 355.28 165.38 L 356.59 165.68 C 356.55 166.01 356.49 166.68 356.45 167.02 C 357.09 168.31 357.70 169.62 358.36 170.91 C 359.36 178.97 359.36 187.68 355.52 195.05 C 355.53 195.38 355.55 196.04 355.56 196.37 L 354.36 196.61 C 354.42 197.05 354.55 197.93 354.62 198.38 L 353.32 198.54 C 353.33 198.85 353.33 199.47 353.34 199.79 C 352.43 200.71 351.56 201.68 350.68 202.63 C 350.38 202.93 349.79 203.53 349.49 203.83 L 349.53 204.58 L 348.41 204.41 L 348.50 205.24 C 346.01 206.98 343.51 208.70 340.95 210.35 C 340.72 210.39 340.24 210.46 340.01 210.50 C 338.73 211.12 337.45 211.72 336.17 212.34 C 333.81 212.97 331.44 213.59 329.08 214.24 C 326.72 214.42 324.36 214.51 322.00 214.52 C 245.14 214.55 168.29 214.49 91.44 214.53 C 91.59 173.43 91.55 132.32 91.49 91.22 M 129.58 114.63 C 129.68 139.94 129.66 165.25 129.63 190.56 C 189.07 190.66 248.52 190.60 307.96 190.58 C 313.74 190.64 320.64 188.44 323.16 182.75 C 324.45 178.45 323.86 173.51 320.88 170.02 C 320.52 169.83 319.80 169.43 319.44 169.24 L 319.58 168.42 L 318.40 168.57 L 318.36 167.40 C 318.06 167.43 317.47 167.48 317.17 167.51 C 315.98 166.99 314.78 166.51 313.57 166.06 L 313.49 165.62 C 308.64 165.29 303.79 165.37 298.94 165.36 C 245.84 165.39 192.75 165.26 139.66 165.37 C 140.49 164.26 141.33 163.17 142.20 162.09 C 143.70 160.60 145.20 159.11 146.73 157.65 C 146.98 157.37 147.50 156.82 147.76 156.54 L 148.48 156.44 L 148.44 155.68 C 148.74 155.44 149.34 154.96 149.64 154.71 C 151.42 152.82 153.22 150.93 155.08 149.10 C 157.88 146.15 160.83 143.33 163.62 140.36 C 212.78 140.23 261.94 140.41 311.10 140.27 C 312.74 139.68 314.41 139.16 316.05 138.55 C 316.30 138.53 316.81 138.50 317.06 138.49 C 318.86 137.15 320.51 135.62 322.11 134.05 C 323.71 130.11 323.98 125.55 321.69 121.82 C 321.66 121.52 321.60 120.92 321.57 120.62 L 320.48 120.61 L 320.49 119.49 L 319.92 119.39 C 319.51 119.10 318.69 118.52 318.28 118.24 L 318.56 117.69 C 316.33 116.74 314.10 115.81 311.89 114.83 C 310.25 114.70 308.61 114.61 306.98 114.60 C 247.85 114.60 188.72 114.59 129.58 114.63 Z" />
<path fill="#000000" opacity="1.00" d=" M 389.39 91.45 C 393.24 90.89 397.19 91.35 401.08 91.17 C 402.35 91.17 403.63 91.17 404.92 91.17 C 414.94 91.08 425.00 91.55 435.00 90.92 C 438.32 91.35 441.68 91.35 445.00 90.92 C 449.98 91.40 455.01 91.33 460.00 90.97 C 473.01 91.50 486.06 91.10 499.08 91.17 C 500.35 91.17 501.63 91.17 502.92 91.17 C 515.61 91.08 528.33 91.55 541.01 90.93 C 546.65 91.40 552.35 91.35 558.00 90.96 C 568.64 91.36 579.35 91.41 590.00 90.93 C 610.26 91.68 630.58 90.83 650.86 91.36 C 650.83 91.61 650.76 92.13 650.73 92.39 L 649.28 92.23 L 649.50 93.03 C 643.62 97.97 638.46 103.70 632.87 108.96 C 632.21 109.62 631.55 110.28 630.90 110.95 C 630.14 111.61 629.38 112.27 628.63 112.92 L 628.59 113.70 L 627.39 113.36 L 627.64 114.54 C 592.20 114.67 556.76 114.61 521.32 114.57 C 520.98 147.87 521.20 181.19 521.22 214.50 C 508.26 214.41 495.30 214.44 482.34 214.48 C 482.31 181.18 482.36 147.87 482.33 114.57 C 445.23 114.66 408.14 114.57 371.04 114.63 C 369.27 114.64 367.51 114.53 365.76 114.32 C 367.05 113.32 368.34 112.30 369.64 111.30 L 369.46 110.44 L 370.69 110.65 L 370.58 109.93 C 373.57 107.47 376.13 104.55 378.87 101.84 C 382.52 98.52 385.69 94.71 389.39 91.45 Z" />
<path fill="#000000" opacity="1.00" d=" M 670.91 92.80 C 674.61 92.10 678.28 91.23 682.07 91.10 C 688.35 90.00 694.66 91.52 700.97 91.21 C 707.97 91.06 715.00 91.50 722.00 90.95 C 731.32 91.51 740.67 91.05 750.00 91.20 C 757.33 91.08 764.68 91.47 772.00 90.98 C 782.35 91.48 792.73 91.08 803.10 91.18 C 807.36 90.57 811.68 90.82 815.98 90.78 C 848.07 90.78 880.16 90.80 912.25 90.77 C 912.97 91.06 914.41 91.64 915.14 91.93 C 914.38 92.15 913.63 92.37 912.90 92.60 C 907.93 98.35 902.34 103.54 897.13 109.07 C 896.90 109.46 896.44 110.22 896.21 110.60 L 895.42 110.40 L 895.61 111.59 L 894.42 111.45 L 894.62 112.20 C 894.27 112.55 893.56 113.26 893.21 113.61 L 892.41 113.41 L 892.68 114.55 C 827.09 114.70 761.50 114.52 695.92 114.63 C 692.28 114.77 688.93 116.41 685.57 117.62 L 685.54 118.54 L 684.65 118.38 C 683.61 119.52 682.60 120.68 681.60 121.84 C 679.51 126.71 679.59 132.94 683.45 136.92 L 683.45 137.61 L 684.72 137.38 L 684.65 138.79 C 685.09 138.66 685.97 138.38 686.41 138.25 L 686.42 139.38 C 688.12 139.49 689.81 139.62 691.52 139.71 L 691.42 140.38 C 749.61 140.23 807.80 140.38 865.99 140.30 C 870.30 140.36 874.69 139.98 878.92 141.04 C 883.79 141.74 888.57 142.98 893.18 144.74 C 898.17 146.85 903.01 149.54 906.81 153.48 L 907.22 153.55 C 907.47 153.86 907.98 154.47 908.24 154.77 C 910.12 157.09 911.76 159.59 913.50 162.03 C 913.49 162.26 913.49 162.73 913.48 162.97 C 913.95 164.00 914.43 165.04 914.91 166.08 C 917.83 174.96 916.71 184.63 913.34 193.21 C 912.25 195.51 911.09 197.78 909.79 199.97 C 908.72 201.27 907.64 202.55 906.55 203.82 L 906.51 204.56 L 905.83 204.49 C 905.49 204.82 904.80 205.47 904.46 205.80 L 904.43 206.20 C 902.98 207.21 901.55 208.24 900.15 209.29 C 898.42 210.15 896.72 211.03 894.96 211.79 C 893.66 212.25 892.36 212.71 891.10 213.22 C 883.19 215.05 875.04 214.34 867.00 214.47 C 792.99 214.40 718.97 214.67 644.96 214.33 C 647.16 212.06 649.27 209.71 651.30 207.28 C 651.60 207.02 652.21 206.50 652.52 206.24 L 652.43 205.47 L 653.13 205.49 C 654.36 203.94 655.61 202.40 656.90 200.89 C 659.83 197.73 662.49 194.32 665.51 191.22 L 665.51 190.56 C 722.33 190.64 779.15 190.57 835.97 190.59 C 845.65 190.47 855.35 190.87 865.02 190.36 C 867.88 189.28 870.84 188.35 873.27 186.41 C 873.61 186.11 874.28 185.51 874.61 185.22 L 874.67 184.87 C 877.00 181.52 876.73 177.36 876.39 173.49 L 875.93 173.41 C 875.06 170.41 872.55 168.22 869.72 167.09 L 869.48 166.73 C 867.06 166.05 864.62 165.27 862.07 165.36 C 802.05 165.38 742.02 165.36 682.00 165.36 C 674.08 164.34 665.76 163.06 658.96 158.58 C 658.63 158.58 657.98 158.59 657.65 158.59 L 657.43 157.87 C 655.95 156.83 654.55 155.68 653.19 154.50 L 652.84 154.54 C 652.49 154.19 651.79 153.49 651.43 153.14 L 651.64 152.43 L 650.85 152.36 C 650.23 151.56 649.61 150.78 648.98 150.00 C 647.36 147.69 645.98 145.21 645.12 142.51 L 644.77 142.49 C 644.45 141.33 644.12 140.18 643.79 139.04 C 642.05 131.73 642.20 124.19 643.71 116.86 C 644.18 115.62 644.64 114.38 645.12 113.14 C 646.59 109.12 649.29 105.77 651.89 102.44 L 652.63 102.72 L 652.58 101.88 C 655.04 100.09 657.51 98.32 660.04 96.62 C 660.28 96.58 660.76 96.51 661.00 96.47 C 662.66 95.64 664.34 94.85 666.05 94.12 C 667.65 93.67 669.29 93.28 670.91 92.80 Z" />
</g>
<g id="#244583ff">
<path fill="#244583" opacity="1.00" d=" M 835.16 280.90 C 845.12 280.88 855.00 279.35 864.97 279.52 C 881.55 279.44 898.19 278.99 914.72 280.56 C 914.62 315.13 914.71 349.71 914.59 384.28 C 897.63 384.07 880.63 384.18 863.77 386.10 C 836.90 388.86 810.18 393.30 783.97 399.88 C 782.63 400.22 781.26 400.52 779.94 400.85 C 769.24 403.66 758.64 406.85 748.08 410.13 C 747.10 410.47 746.14 410.82 745.19 411.18 C 739.49 413.16 733.72 414.92 728.13 417.18 C 725.43 418.14 722.75 419.14 720.10 420.20 C 716.03 421.77 712.00 423.44 708.03 425.23 C 702.61 427.32 697.35 429.77 692.10 432.24 C 690.05 433.16 688.02 434.10 686.01 435.09 C 681.26 437.43 676.38 439.56 671.94 442.48 C 671.59 442.45 670.90 442.40 670.55 442.38 L 670.39 443.63 C 669.95 443.57 669.07 443.45 668.63 443.39 L 668.38 444.61 C 668.03 444.59 667.33 444.56 666.98 444.54 C 664.08 446.47 661.05 448.20 657.93 449.76 C 640.72 459.81 623.95 470.68 608.16 482.87 C 596.09 491.90 584.90 502.00 573.71 512.08 C 567.95 506.17 563.40 499.23 557.89 493.11 C 540.62 472.81 522.89 452.82 503.32 434.69 C 509.43 427.98 516.45 422.19 523.21 416.15 C 542.40 399.70 562.33 384.08 583.46 370.18 C 596.09 361.58 609.18 353.63 622.55 346.24 L 622.64 345.88 C 624.74 344.92 626.79 343.86 628.80 342.72 C 633.83 340.06 638.86 337.40 643.95 334.86 C 649.63 332.09 655.30 329.30 661.01 326.57 L 661.89 326.40 C 667.42 323.59 673.19 321.29 678.89 318.82 C 680.55 318.15 682.22 317.46 683.90 316.77 C 689.92 314.49 695.96 312.23 701.96 309.88 C 708.97 307.55 715.99 305.28 722.97 302.87 C 724.99 302.29 727.00 301.69 729.03 301.13 C 730.03 300.76 731.04 300.40 732.06 300.05 C 733.36 299.73 734.67 299.44 736.00 299.15 C 757.62 292.83 779.72 288.07 802.04 285.11 C 806.64 284.00 811.35 283.49 816.07 283.19 C 822.37 281.88 828.83 281.93 835.16 280.90 Z" />
<path fill="#244583" opacity="1.00" d=" M 839.87 452.82 C 862.88 449.85 886.14 450.11 909.30 450.64 L 909.91 451.20 C 911.51 451.22 913.12 451.26 914.75 451.30 C 914.57 487.47 914.65 523.64 914.63 559.81 C 911.75 559.57 908.88 559.36 906.06 558.86 C 878.53 557.03 850.81 559.52 823.96 565.82 C 821.32 566.57 818.65 567.22 815.98 567.82 C 814.66 568.26 813.34 568.68 812.04 569.13 C 809.67 569.62 807.34 570.28 805.08 571.13 C 799.58 572.76 794.17 574.67 788.84 576.78 C 787.60 577.24 786.34 577.67 785.11 578.14 C 783.42 578.80 781.75 579.50 780.10 580.22 C 776.37 581.72 772.71 583.37 769.09 585.10 C 742.88 597.39 718.69 613.82 697.26 633.25 C 686.41 643.05 676.23 653.59 666.85 664.81 C 665.44 666.46 664.06 668.15 662.77 669.91 C 662.05 670.59 661.35 671.29 660.63 671.97 C 660.58 672.33 660.46 673.04 660.40 673.39 C 660.73 673.44 661.37 673.54 661.69 673.59 C 658.81 674.91 656.45 677.04 654.73 679.67 C 642.23 696.52 631.05 714.31 620.90 732.66 C 618.71 740.94 614.68 748.58 612.62 756.91 C 609.28 764.33 607.58 772.29 604.78 779.90 C 601.66 790.47 598.23 800.94 595.55 811.63 C 593.48 818.39 591.77 825.24 589.85 832.04 C 583.12 858.17 576.88 884.45 572.00 911.00 C 567.48 934.18 563.83 957.53 560.82 980.96 C 559.19 996.32 557.27 1011.68 556.45 1027.12 L 556.41 1027.27 C 556.03 1028.31 555.68 1029.38 555.35 1030.48 C 555.60 1024.28 554.36 1018.16 554.21 1011.97 C 553.02 1004.40 553.99 996.69 552.79 989.12 C 552.12 983.75 551.46 978.37 551.35 972.96 C 549.96 955.62 547.46 938.41 545.27 921.17 C 543.24 905.37 539.62 889.84 536.80 874.18 C 533.88 859.13 530.48 844.18 526.86 829.29 C 524.14 820.80 522.53 812.01 519.76 803.54 C 518.26 796.88 515.51 790.58 514.21 783.89 C 513.74 783.06 513.28 782.25 512.83 781.45 C 510.49 772.12 507.01 763.12 503.95 754.02 C 503.75 753.57 503.36 752.67 503.16 752.21 C 513.73 721.92 526.87 692.55 541.87 664.20 C 542.55 662.84 543.26 661.49 543.97 660.15 C 552.78 642.35 563.77 625.73 575.39 609.65 C 585.90 594.88 598.19 581.52 610.32 568.11 C 615.01 562.88 620.09 558.02 625.21 553.22 C 644.03 535.50 664.50 519.51 686.44 505.83 C 690.66 503.23 694.88 500.63 699.22 498.22 C 712.02 490.94 725.27 484.49 738.82 478.74 C 743.61 476.94 748.34 474.95 753.14 473.14 C 754.10 472.78 755.06 472.43 756.04 472.09 C 757.32 471.64 758.60 471.21 759.90 470.77 C 760.87 470.42 761.85 470.06 762.83 469.71 C 764.51 469.17 766.19 468.63 767.88 468.11 C 774.59 466.01 781.29 463.92 788.12 462.23 C 791.34 461.32 794.63 460.69 797.87 459.84 C 811.71 456.66 825.76 454.35 839.87 452.82 Z" />
<path fill="#244583" opacity="1.00" d=" M 432.24 512.80 L 433.22 513.32 C 444.32 524.01 455.44 534.76 465.14 546.77 C 478.94 563.20 491.44 580.71 502.74 598.95 C 496.34 608.55 489.82 618.09 484.06 628.09 C 483.23 629.43 483.48 631.07 483.34 632.57 L 482.44 630.07 C 476.68 641.57 470.11 652.65 464.42 664.18 C 457.05 648.93 448.02 634.55 438.67 620.45 C 433.09 613.34 428.31 605.64 422.52 598.70 C 414.42 588.44 405.64 578.76 396.71 569.24 C 396.60 568.79 396.40 567.90 396.29 567.45 C 396.24 566.36 396.94 565.41 397.40 564.48 C 401.30 557.66 405.51 551.03 409.84 544.47 C 416.94 533.65 424.72 523.31 432.24 512.80 Z" />
<path fill="#244583" opacity="1.00" d=" M 346.39 673.59 C 353.77 682.09 359.88 691.56 366.24 700.82 C 372.83 710.93 379.38 721.12 384.78 731.93 C 387.69 739.64 390.82 747.30 393.16 755.22 C 397.35 767.48 401.68 779.70 405.09 792.21 C 406.89 799.04 409.47 805.65 410.86 812.59 C 410.21 815.04 409.57 817.52 408.87 819.98 C 401.46 850.35 395.35 881.04 390.78 911.97 C 387.37 935.53 384.31 959.17 382.53 982.91 C 382.03 994.05 380.37 1005.11 380.38 1016.27 C 379.37 1022.47 379.64 1028.75 379.49 1035.01 C 377.95 1052.76 378.53 1070.61 378.31 1088.42 C 343.08 1088.46 307.85 1088.43 272.62 1088.45 C 272.26 1084.63 271.56 1080.85 271.52 1077.02 C 271.43 1069.32 270.23 1061.67 270.35 1053.96 C 270.36 1034.64 269.74 1015.27 271.37 996.00 C 271.22 988.32 272.51 980.73 272.54 973.07 C 273.00 968.01 273.77 962.97 273.73 957.88 C 276.37 934.88 278.93 911.79 283.14 888.99 C 287.65 860.41 294.04 832.14 301.21 804.11 C 310.70 768.20 321.85 732.72 335.25 698.08 C 335.74 696.67 336.25 695.27 336.75 693.87 C 337.47 692.19 338.16 690.50 338.80 688.80 C 339.15 687.86 339.50 686.92 339.85 685.99 C 340.86 683.61 341.83 681.22 342.84 678.84 C 343.61 676.93 344.33 675.00 344.97 673.05 C 345.33 673.19 346.03 673.46 346.39 673.59 Z" />
</g>
<g id="#db0226ff">
<path fill="#db0226" opacity="1.00" d=" M 101.84 279.71 C 119.05 279.31 136.27 279.50 153.48 279.64 L 153.55 280.35 C 160.27 280.78 167.12 280.02 173.74 281.44 C 176.31 281.58 178.88 281.67 181.46 281.69 L 181.43 282.43 C 184.92 282.46 188.44 282.54 191.87 283.30 C 201.95 284.54 211.98 286.17 221.99 287.92 C 223.67 288.30 225.36 288.56 227.06 288.87 C 228.72 289.28 230.40 289.54 232.09 289.82 C 235.05 290.69 238.06 291.40 241.13 291.74 C 242.76 292.14 244.39 292.49 246.03 292.85 C 247.38 293.22 248.74 293.52 250.11 293.84 C 251.74 294.22 253.38 294.56 255.02 294.91 C 257.42 295.80 259.89 296.50 262.45 296.75 L 262.52 297.22 C 264.73 297.68 266.92 298.27 269.13 298.77 C 270.11 299.12 271.10 299.47 272.10 299.81 C 273.57 300.17 275.06 300.42 276.56 300.71 L 276.57 301.39 C 277.19 301.44 278.45 301.55 279.07 301.60 C 280.68 302.19 282.30 302.75 283.91 303.35 C 284.45 303.45 285.52 303.66 286.05 303.76 C 287.07 304.14 288.09 304.52 289.12 304.89 C 290.12 305.19 291.13 305.49 292.15 305.78 C 293.43 306.30 294.71 306.81 295.99 307.35 C 296.63 307.40 297.91 307.49 298.55 307.53 L 298.52 308.25 C 300.74 308.81 302.91 309.57 305.04 310.43 C 305.26 310.45 305.71 310.49 305.94 310.51 C 306.99 310.96 308.04 311.40 309.10 311.84 C 310.34 312.32 311.58 312.78 312.82 313.28 C 315.36 314.20 317.91 315.10 320.51 315.84 L 320.56 316.86 C 321.03 316.69 321.96 316.36 322.42 316.20 L 322.46 317.47 C 323.23 317.49 324.77 317.52 325.55 317.54 L 325.54 318.90 C 326.02 318.73 326.98 318.38 327.47 318.21 L 327.45 319.29 C 329.13 319.74 330.80 320.25 332.49 320.71 L 332.56 321.72 C 333.01 321.60 333.92 321.37 334.38 321.25 L 334.58 322.63 C 335.03 322.53 335.94 322.34 336.39 322.24 L 336.58 323.19 C 338.19 323.68 339.80 324.23 341.42 324.74 L 341.64 325.67 C 342.08 325.59 342.96 325.41 343.41 325.33 L 343.64 326.68 C 344.10 326.58 345.01 326.37 345.47 326.27 L 345.67 327.60 C 346.13 327.51 347.05 327.34 347.51 327.25 L 347.57 328.42 C 348.29 328.45 349.75 328.50 350.47 328.52 L 350.49 329.68 C 350.84 329.66 351.53 329.62 351.88 329.60 C 354.22 330.95 356.63 332.18 359.00 333.50 C 359.37 333.48 360.11 333.43 360.48 333.41 L 360.53 334.76 C 361.00 334.64 361.94 334.38 362.41 334.26 L 362.55 335.68 C 362.99 335.60 363.89 335.43 364.33 335.35 C 364.41 335.54 364.55 335.92 364.63 336.12 C 366.46 336.94 368.26 337.86 370.03 338.83 C 372.49 340.23 374.99 341.56 377.55 342.77 L 377.67 343.70 C 378.11 343.60 378.99 343.40 379.43 343.30 L 379.65 344.59 C 380.11 344.54 381.02 344.43 381.48 344.37 L 381.61 345.80 C 382.07 345.66 383.01 345.37 383.47 345.23 L 383.44 346.17 C 385.38 347.15 387.27 348.25 389.07 349.49 C 389.29 349.52 389.74 349.59 389.96 349.63 C 392.13 351.09 394.39 352.41 396.69 353.67 L 396.60 354.65 C 397.07 354.53 398.02 354.30 398.49 354.18 L 398.51 355.64 C 398.97 355.55 399.89 355.38 400.35 355.29 L 400.60 356.61 C 400.94 356.59 401.62 356.56 401.96 356.54 C 404.11 358.31 406.51 359.74 408.92 361.15 C 409.92 361.77 410.89 362.45 411.86 363.16 C 412.90 363.77 413.93 364.38 414.97 365.03 C 416.61 366.11 418.24 367.21 419.90 368.30 C 421.26 369.20 422.62 370.13 423.98 371.07 C 426.38 372.67 428.79 374.27 431.15 375.94 C 432.10 376.63 433.04 377.31 434.00 378.01 C 435.35 378.98 436.70 379.94 438.05 380.91 C 442.36 383.65 446.37 386.83 450.51 389.82 L 450.58 390.66 C 450.89 390.64 451.50 390.61 451.81 390.59 C 452.76 391.51 453.75 392.41 454.76 393.29 C 456.15 394.24 457.51 395.25 458.85 396.28 C 463.69 400.02 468.32 404.00 473.08 407.84 C 475.11 409.50 477.11 411.20 479.03 413.00 C 479.83 413.62 480.64 414.25 481.46 414.86 L 481.56 415.13 C 483.47 416.60 485.27 418.23 487.05 419.86 C 491.09 422.92 494.41 426.80 498.44 429.87 L 498.40 430.63 L 499.15 430.44 C 499.53 430.77 500.28 431.43 500.66 431.77 L 500.37 432.59 L 501.26 432.36 C 501.52 432.72 502.03 433.44 502.29 433.80 C 502.55 434.02 503.06 434.47 503.32 434.69 C 522.89 452.82 540.62 472.81 557.89 493.11 C 563.40 499.23 567.95 506.17 573.71 512.08 C 573.61 512.42 573.41 513.10 573.31 513.44 C 573.64 513.41 574.31 513.35 574.64 513.32 L 574.36 514.52 L 575.22 514.58 C 576.02 515.81 576.85 517.03 577.67 518.26 C 578.41 519.18 579.18 520.12 579.94 521.06 C 581.88 523.87 583.89 526.64 585.84 529.46 L 586.72 529.55 C 586.68 529.92 586.60 530.64 586.56 531.00 C 587.76 531.64 588.45 532.75 588.99 533.98 C 589.98 535.33 591.00 536.68 592.03 538.02 C 594.00 541.02 595.84 544.11 597.98 547.00 C 600.30 550.77 602.95 554.35 604.86 558.37 L 605.30 558.47 C 606.86 561.73 609.44 564.60 610.32 568.11 C 598.19 581.52 585.90 594.88 575.39 609.65 C 563.77 625.73 552.78 642.35 543.97 660.15 C 543.26 661.49 542.55 662.84 541.87 664.20 C 532.71 646.36 523.22 628.64 512.18 611.87 C 509.29 607.28 505.93 603.00 503.10 598.38 C 503.01 598.53 502.83 598.81 502.74 598.95 C 491.44 580.71 478.94 563.20 465.14 546.77 C 455.44 534.76 444.32 524.01 433.22 513.32 C 429.63 509.30 425.69 505.61 421.58 502.14 L 421.40 501.88 C 419.42 500.43 417.60 498.77 415.89 497.02 C 408.30 490.80 400.52 484.81 392.92 478.62 C 392.69 478.59 392.25 478.54 392.02 478.51 C 390.11 476.88 388.12 475.35 386.05 473.93 C 384.70 472.96 383.35 472.00 382.01 471.04 C 380.61 470.12 379.21 469.20 377.82 468.29 C 375.24 466.29 372.55 464.43 369.60 463.03 L 369.70 462.75 C 369.30 462.42 368.48 461.78 368.08 461.46 L 367.34 461.72 L 367.31 461.01 C 365.49 460.05 363.73 458.99 362.02 457.86 C 360.26 456.84 358.55 455.77 356.92 454.57 C 356.59 454.59 355.91 454.63 355.58 454.65 L 355.42 453.25 C 354.96 453.37 354.05 453.60 353.59 453.71 L 353.68 452.41 L 352.46 452.63 C 352.42 452.30 352.33 451.63 352.29 451.30 L 350.57 451.76 L 350.37 450.29 C 349.91 450.39 349.01 450.60 348.56 450.71 L 348.60 449.74 C 346.23 448.61 343.90 447.41 341.55 446.24 L 341.40 445.25 C 340.96 445.37 340.07 445.61 339.62 445.72 L 339.59 444.65 C 338.52 444.24 337.45 443.84 336.38 443.44 C 336.35 443.19 336.27 442.71 336.23 442.47 L 335.02 442.61 C 332.25 440.95 329.35 439.53 326.38 438.26 L 326.42 437.25 C 325.96 437.39 325.02 437.66 324.55 437.80 L 324.40 436.36 C 323.94 436.44 323.01 436.59 322.55 436.66 L 322.39 435.32 C 321.93 435.44 321.00 435.68 320.54 435.81 C 320.48 435.42 320.34 434.65 320.27 434.26 L 318.58 434.93 L 318.41 433.44 C 318.03 433.48 317.28 433.55 316.90 433.58 C 315.61 432.84 314.31 432.11 313.03 431.38 C 312.74 431.42 312.16 431.49 311.88 431.53 C 310.93 430.83 310.00 430.14 309.07 429.45 C 308.68 429.51 307.92 429.61 307.54 429.67 L 307.47 428.73 C 305.81 428.25 304.16 427.72 302.50 427.25 L 302.42 426.25 C 302.06 426.32 301.36 426.45 301.01 426.51 C 298.71 425.29 296.34 424.20 293.92 423.26 C 292.67 422.71 291.42 422.17 290.18 421.62 C 288.64 421.13 287.11 420.63 285.56 420.19 L 285.40 419.77 C 283.90 419.26 282.41 418.70 280.92 418.16 C 279.77 417.80 278.62 417.47 277.47 417.16 L 277.49 416.21 C 277.14 416.27 276.45 416.38 276.10 416.43 C 274.05 415.59 271.97 414.85 269.85 414.22 C 268.62 413.73 267.38 413.24 266.15 412.75 C 265.15 412.40 264.15 412.05 263.16 411.70 C 261.32 411.13 259.48 410.57 257.60 410.15 L 257.51 409.47 C 256.76 409.48 255.26 409.49 254.51 409.49 L 254.48 408.68 C 250.22 407.70 246.07 406.32 241.84 405.22 C 239.54 404.46 237.22 403.77 234.92 403.02 C 233.45 402.71 231.95 402.46 230.47 402.23 L 230.49 401.60 C 229.86 401.53 228.60 401.38 227.97 401.30 C 224.92 400.23 221.74 399.57 218.52 399.28 L 218.44 398.83 C 216.94 398.51 215.46 398.18 213.98 397.78 C 212.95 397.59 211.92 397.41 210.90 397.23 C 204.53 395.54 198.03 394.29 191.52 393.24 L 191.51 392.68 C 189.65 392.55 187.80 392.39 185.95 392.22 C 184.27 391.80 182.57 391.48 180.86 391.22 C 178.88 390.78 176.88 390.39 174.92 389.85 C 172.13 389.59 169.32 389.44 166.52 389.34 L 166.49 388.73 C 160.98 388.37 155.53 387.48 150.05 386.81 C 143.94 386.42 137.91 385.26 131.78 385.25 C 123.89 384.02 115.90 384.67 107.96 384.19 C 102.53 383.15 96.97 383.82 91.47 383.77 C 91.53 349.36 91.48 314.95 91.50 280.54 C 94.96 280.50 98.45 280.49 101.84 279.71 Z" />
<path fill="#db0226" opacity="1.00" d=" M 91.47 451.47 C 107.99 449.78 124.65 450.30 141.22 450.69 C 146.17 451.77 151.26 451.22 156.27 451.69 C 159.19 452.28 162.17 452.45 165.13 452.64 C 168.08 453.37 171.12 453.47 174.14 453.70 C 176.75 454.31 179.45 454.50 182.08 455.02 C 190.98 456.05 199.68 458.26 208.50 459.73 L 208.51 460.23 C 211.50 460.70 214.45 461.43 217.45 461.80 L 217.55 462.32 C 223.41 463.64 229.25 465.09 234.89 467.15 C 236.65 467.65 238.39 468.20 240.15 468.72 C 242.12 469.41 244.11 470.09 246.10 470.76 C 247.11 471.11 248.14 471.46 249.17 471.80 C 250.43 472.28 251.70 472.74 252.96 473.23 C 255.65 474.14 258.30 475.14 260.90 476.28 C 262.42 476.78 263.93 477.29 265.47 477.76 C 265.53 478.01 265.65 478.51 265.72 478.76 L 266.89 478.36 C 268.22 479.10 269.57 479.81 270.91 480.55 C 271.26 480.49 271.98 480.36 272.33 480.30 L 272.58 481.58 C 272.92 481.56 273.62 481.52 273.97 481.49 C 276.39 482.80 278.88 483.99 281.50 484.88 L 281.53 485.36 C 282.86 485.78 284.17 486.25 285.51 486.68 L 285.60 487.70 C 286.06 487.60 286.97 487.40 287.43 487.30 L 287.62 488.61 C 288.07 488.53 288.98 488.38 289.44 488.30 L 289.60 489.65 C 290.06 489.57 290.98 489.40 291.44 489.31 L 291.58 490.67 C 292.05 490.56 292.98 490.36 293.45 490.26 L 293.57 491.66 C 294.03 491.58 294.96 491.43 295.42 491.35 L 295.61 492.67 C 296.07 492.59 296.99 492.42 297.44 492.34 L 297.59 493.74 C 298.05 493.64 298.97 493.44 299.43 493.34 L 299.35 494.64 L 300.60 494.31 L 300.64 495.05 C 303.08 495.98 305.38 497.24 307.59 498.63 C 307.63 498.74 307.70 498.97 307.74 499.08 C 311.12 500.37 314.19 502.32 317.04 504.54 C 317.37 504.49 318.04 504.38 318.37 504.33 L 318.48 505.23 C 320.10 506.19 321.74 507.12 323.44 507.95 L 323.49 508.72 C 323.82 508.71 324.48 508.70 324.81 508.70 C 327.61 511.34 331.01 513.23 334.37 515.08 C 334.39 515.41 334.43 516.09 334.45 516.42 C 334.92 516.40 335.86 516.34 336.33 516.31 L 336.61 517.19 C 339.49 519.20 342.59 520.92 345.14 523.36 C 345.46 523.37 346.10 523.39 346.42 523.39 L 346.50 524.19 C 349.77 526.64 352.97 529.20 356.19 531.72 C 357.85 533.05 359.49 534.41 361.16 535.74 C 363.21 537.40 365.20 539.13 367.16 540.90 C 368.03 541.68 368.91 542.43 369.80 543.21 C 372.35 545.30 374.73 547.58 377.16 549.81 C 377.51 550.03 378.20 550.48 378.55 550.70 L 378.59 551.13 C 384.36 556.25 389.91 561.66 395.03 567.43 C 395.35 567.43 395.98 567.45 396.29 567.45 C 396.40 567.90 396.60 568.79 396.71 569.24 C 405.64 578.76 414.42 588.44 422.52 598.70 C 428.31 605.64 433.09 613.34 438.67 620.45 C 448.02 634.55 457.05 648.93 464.42 664.18 C 473.94 682.46 482.81 701.09 490.77 720.11 C 491.11 721.05 491.44 722.00 491.79 722.97 C 495.95 732.57 499.63 742.37 503.16 752.21 C 503.36 752.67 503.75 753.57 503.95 754.02 C 507.01 763.12 510.49 772.12 512.83 781.45 C 513.28 782.25 513.74 783.06 514.21 783.89 C 515.51 790.58 518.26 796.88 519.76 803.54 C 522.53 812.01 524.14 820.80 526.86 829.29 C 530.48 844.18 533.88 859.13 536.80 874.18 C 539.62 889.84 543.24 905.37 545.27 921.17 C 547.46 938.41 549.96 955.62 551.35 972.96 C 551.46 978.37 552.12 983.75 552.79 989.12 C 553.99 996.69 553.02 1004.40 554.21 1011.97 C 554.36 1018.16 555.60 1024.28 555.35 1030.48 C 555.68 1029.38 556.03 1028.31 556.41 1027.27 C 556.60 1029.11 557.17 1030.92 557.41 1032.77 C 555.93 1035.81 555.13 1039.05 555.30 1042.46 C 555.82 1045.93 556.36 1049.43 556.17 1052.97 C 555.94 1059.48 556.72 1066.05 555.46 1072.50 C 555.32 1077.75 555.34 1083.02 555.23 1088.29 C 520.67 1088.57 486.11 1088.40 451.55 1088.37 C 451.64 1075.21 450.07 1062.11 450.82 1048.95 C 451.50 1046.18 451.39 1043.32 451.43 1040.51 L 450.61 1040.44 C 450.14 1018.61 447.14 996.91 444.69 975.25 C 444.34 970.83 443.73 966.43 442.81 962.10 C 442.58 959.73 442.44 957.35 441.87 955.06 C 441.10 948.68 439.85 942.38 438.91 936.04 C 438.16 932.06 437.57 928.05 436.66 924.11 C 436.51 922.53 436.38 920.96 436.29 919.41 L 435.60 919.54 C 435.54 917.85 435.47 916.16 435.42 914.49 L 434.71 914.52 C 434.55 912.35 434.35 910.20 433.93 908.09 C 433.57 906.70 433.24 905.34 432.86 903.98 C 432.09 898.96 431.12 893.97 429.92 889.04 C 429.55 887.37 429.23 885.72 428.85 884.08 C 428.51 882.39 428.14 880.72 427.71 879.07 C 427.50 877.71 427.32 876.38 427.13 875.05 C 426.64 873.39 426.23 871.74 425.76 870.11 C 425.47 868.74 425.20 867.41 424.86 866.08 C 424.53 864.72 424.24 863.40 423.89 862.07 C 423.40 859.36 422.67 856.71 421.91 854.08 C 421.29 851.12 420.54 848.19 419.73 845.29 C 419.42 843.90 419.09 842.53 418.75 841.18 C 417.79 837.46 416.83 833.75 415.92 830.03 C 415.57 828.68 415.26 827.37 414.87 826.05 C 414.27 824.01 413.69 821.97 413.22 819.91 C 412.63 817.86 412.01 815.83 411.28 813.84 L 410.86 812.59 C 409.47 805.65 406.89 799.04 405.09 792.21 C 401.68 779.70 397.35 767.48 393.16 755.22 C 390.82 747.30 387.69 739.64 384.78 731.93 C 379.38 721.12 372.83 710.93 366.24 700.82 C 359.88 691.56 353.77 682.09 346.39 673.59 C 344.67 671.24 342.98 668.88 341.13 666.64 L 340.71 666.67 C 340.49 666.28 340.04 665.51 339.82 665.12 C 337.88 662.98 335.93 660.85 334.11 658.61 L 333.84 658.37 C 325.41 648.79 316.17 639.93 306.89 631.17 C 306.60 630.96 306.03 630.53 305.74 630.32 C 303.49 628.38 301.28 626.41 299.11 624.39 C 298.74 624.40 297.99 624.42 297.62 624.42 C 297.58 624.05 297.51 623.30 297.48 622.93 C 289.77 617.43 282.55 611.23 274.50 606.21 L 274.38 605.33 C 274.01 605.39 273.28 605.52 272.91 605.58 C 272.43 605.16 271.46 604.34 270.98 603.93 C 267.98 601.76 264.79 599.89 261.53 598.17 L 261.40 597.22 C 260.95 597.34 260.05 597.57 259.60 597.69 L 259.66 596.77 C 257.31 595.54 255.01 594.25 252.65 593.06 L 252.52 592.67 C 250.81 591.90 249.12 591.10 247.42 590.32 L 247.42 589.30 C 246.96 589.44 246.04 589.72 245.58 589.85 L 245.42 588.38 C 244.94 588.46 243.98 588.61 243.50 588.69 L 243.41 587.34 C 242.95 587.45 242.05 587.69 241.59 587.80 C 241.52 587.43 241.39 586.69 241.32 586.32 L 239.61 586.75 L 239.46 585.86 C 236.40 584.84 233.58 583.25 230.55 582.18 L 230.34 581.40 C 230.01 581.42 229.36 581.45 229.03 581.47 C 227.26 580.54 225.41 579.76 223.50 579.17 L 223.55 578.75 C 221.97 578.27 220.41 577.75 218.83 577.26 C 217.61 576.75 216.37 576.24 215.15 575.74 C 212.72 574.90 210.30 574.05 207.87 573.25 C 206.61 572.73 205.35 572.20 204.09 571.70 C 203.54 571.60 202.46 571.41 201.91 571.31 C 199.49 570.39 197.00 569.61 194.43 569.23 L 194.54 568.62 C 193.91 568.55 192.65 568.43 192.02 568.37 C 187.75 567.01 183.38 565.99 179.02 564.98 C 173.84 564.07 168.75 562.59 163.48 562.26 L 163.52 561.63 C 160.68 561.55 157.82 561.43 155.05 560.73 C 152.74 560.45 150.43 560.25 148.15 559.81 C 143.49 559.16 138.73 559.73 134.12 558.76 C 122.77 557.92 111.37 558.38 100.01 558.70 C 98.39 558.69 96.82 559.07 95.25 559.42 C 93.99 559.53 92.73 559.66 91.47 559.79 C 91.52 523.68 91.52 487.58 91.47 451.47 Z" />
<path fill="#db0226" opacity="1.00" d=" M 654.73 679.67 C 656.45 677.04 658.81 674.91 661.69 673.59 L 661.27 675.36 L 662.71 675.63 C 662.58 676.10 662.33 677.04 662.21 677.51 L 663.28 677.36 C 663.52 678.52 663.79 679.68 664.09 680.85 C 665.04 682.92 665.97 685.01 666.76 687.17 C 667.22 688.39 667.69 689.63 668.18 690.86 C 668.58 691.93 669.00 692.99 669.44 694.07 C 669.48 694.31 669.57 694.79 669.62 695.03 C 670.86 697.64 671.88 700.35 672.78 703.11 C 674.57 707.88 676.90 712.51 677.83 717.56 L 678.83 717.52 C 678.72 717.87 678.51 718.58 678.41 718.93 C 679.04 720.26 679.67 721.64 680.33 722.99 C 680.39 723.62 680.51 724.87 680.56 725.50 L 681.21 725.49 C 682.34 729.69 683.84 733.80 685.36 737.88 C 685.46 738.59 685.57 739.31 685.70 740.05 C 686.21 741.30 686.72 742.60 687.22 743.88 C 687.58 744.92 687.96 745.95 688.36 746.98 C 688.42 747.62 688.54 748.89 688.59 749.52 L 689.44 749.46 C 689.50 750.10 689.61 751.37 689.66 752.00 C 690.61 754.26 691.36 756.59 692.08 758.94 C 693.57 764.35 695.49 769.65 696.87 775.11 C 697.64 777.68 698.39 780.28 699.19 782.86 C 699.68 784.96 700.25 787.04 700.78 789.14 C 701.51 791.39 702.22 793.67 702.82 795.98 C 703.68 798.93 704.41 801.92 705.12 804.92 C 705.44 806.22 705.79 807.55 706.17 808.87 C 706.48 810.19 706.82 811.53 707.20 812.87 C 707.48 814.18 707.80 815.53 708.16 816.86 C 708.45 818.19 708.77 819.55 709.14 820.89 C 709.86 823.86 710.48 826.86 711.25 829.84 C 711.90 832.53 712.50 835.24 713.16 837.94 C 713.45 839.59 713.76 841.27 714.18 842.92 C 714.50 844.53 714.85 846.19 715.24 847.81 C 715.50 849.19 715.77 850.57 716.09 851.96 C 718.00 860.25 719.36 868.66 721.17 876.98 C 721.38 878.66 721.57 880.35 721.81 882.05 C 722.82 885.98 723.39 890.00 723.85 894.03 C 724.18 895.53 724.40 897.04 724.65 898.59 C 724.81 898.58 725.12 898.57 725.28 898.56 C 725.20 903.77 726.33 908.88 727.07 914.02 C 728.72 925.57 730.05 937.17 731.38 948.75 C 731.46 951.47 731.57 954.23 732.32 956.89 C 732.60 960.42 732.66 963.98 732.65 967.53 L 733.44 967.44 C 733.69 972.22 733.06 977.12 734.29 981.81 C 734.77 987.51 733.99 993.30 735.23 998.93 C 735.84 1009.60 735.58 1020.30 735.71 1030.98 C 735.65 1043.71 735.85 1056.45 735.29 1069.18 C 734.19 1073.73 734.66 1078.44 734.26 1083.07 C 733.84 1084.64 733.56 1086.20 733.32 1087.83 C 698.29 1087.78 663.25 1087.76 628.22 1087.83 C 628.47 1077.54 627.36 1067.30 627.64 1057.01 C 627.61 1051.29 627.65 1045.57 627.25 1039.87 C 626.00 1028.73 626.94 1017.42 625.79 1006.26 C 625.37 999.01 624.27 991.80 624.32 984.53 L 623.56 984.46 C 623.41 980.65 623.80 976.75 622.73 973.04 C 622.49 969.66 622.69 966.23 621.82 962.93 C 621.53 959.64 621.63 956.30 620.84 953.09 C 620.00 945.37 619.42 937.61 617.87 930.00 C 617.47 925.28 616.83 920.57 615.88 915.93 C 615.67 914.19 615.50 912.47 615.33 910.75 C 614.81 908.49 614.50 906.19 614.25 903.91 C 613.76 901.59 613.50 899.24 613.29 896.91 C 612.70 894.62 612.35 892.29 611.89 889.99 C 611.17 884.62 610.10 879.32 609.15 874.00 C 608.20 870.22 607.48 866.38 607.24 862.50 L 606.71 862.56 C 606.49 860.71 606.26 858.88 605.88 857.08 C 605.47 855.40 605.10 853.75 604.67 852.11 C 604.56 850.89 604.45 849.68 604.36 848.48 L 603.79 848.50 C 602.98 842.89 601.49 837.42 600.19 831.92 C 599.71 829.97 599.35 828.00 598.91 826.06 C 598.53 824.68 598.19 823.33 597.80 821.99 C 597.46 820.35 597.14 818.75 596.74 817.15 C 596.29 815.32 595.68 813.51 595.55 811.63 C 598.23 800.94 601.66 790.47 604.78 779.90 C 607.58 772.29 609.28 764.33 612.62 756.91 C 614.68 748.58 618.71 740.94 620.90 732.66 C 631.05 714.31 642.23 696.52 654.73 679.67 Z" />
</g>
</svg>
