<?xml version="1.0" encoding="utf-8"?>
<!-- Generator: Adobe Illustrator 16.0.0, SVG Export Plug-In . SVG Version: 6.00 Build 0)  -->
<!DOCTYPE svg PUBLIC "-//W3C//DTD SVG 1.1//EN" "http://www.w3.org/Graphics/SVG/1.1/DTD/svg11.dtd">
<svg version="1.1" id="Layer_1" xmlns="http://www.w3.org/2000/svg" xmlns:xlink="http://www.w3.org/1999/xlink" x="0px" y="0px"
	 width="599.333px" height="375px" viewBox="0 0 599.333 375" enable-background="new 0 0 599.333 375" xml:space="preserve">
<g>
	<path fill="#A4A4A4" d="M23.688,20.051c0,3.976-0.745,7.593-2.232,10.85c-1.977,4.168-4.797,6.251-8.46,6.251
		c-3.712,0-6.557-2.083-8.532-6.251c-1.488-3.208-2.232-6.826-2.232-10.85c0-4.837,0.816-8.934,2.448-12.287
		c1.975-3.879,4.748-5.82,8.316-5.82c3.567,0,6.339,1.94,8.316,5.82C22.896,11.117,23.688,15.213,23.688,20.051z M20.88,19.981
		c0-4.185-0.603-7.722-1.808-10.609c-1.447-3.368-3.473-5.052-6.076-5.052c-2.653,0-4.702,1.684-6.148,5.052
		c-1.206,2.84-1.808,6.375-1.808,10.609c0,3.465,0.578,6.593,1.736,9.382c1.447,3.609,3.52,5.413,6.22,5.413
		c2.651,0,4.701-1.803,6.148-5.413C20.301,26.574,20.88,23.446,20.88,19.981z"/>
	<path fill="#A4A4A4" d="M49.608,27.144c0,3.072-0.958,5.472-2.871,7.2s-4.497,2.592-7.749,2.592c-3.205,0-5.764-0.864-7.678-2.592
		c-1.914-1.728-2.87-4.127-2.87-7.2c0-2.352,0.682-4.38,2.045-6.084c1.363-1.704,3.097-2.772,5.202-3.204
		c-1.77-0.528-3.24-1.476-4.411-2.844c-1.171-1.368-1.756-2.844-1.756-4.428c0-2.544,0.884-4.632,2.654-6.264
		c1.769-1.631,4.064-2.448,6.886-2.448c2.773,0,5.044,0.816,6.814,2.448c1.769,1.632,2.654,3.72,2.654,6.264
		c0,1.584-0.586,3.06-1.757,4.428c-1.171,1.368-2.641,2.316-4.41,2.844c2.104,0.432,3.838,1.5,5.202,3.204
		C48.926,22.764,49.608,24.792,49.608,27.144z M46.8,27.36c0-1.872-0.651-3.66-1.953-5.364c-1.303-1.704-3.256-2.628-5.859-2.772
		c-2.556,0.144-4.485,1.069-5.787,2.772c-1.303,1.704-1.953,3.492-1.953,5.364c0,2.16,0.734,3.877,2.206,5.148
		c1.47,1.272,3.339,1.908,5.606,1.908c2.218,0,4.063-0.636,5.534-1.908C46.064,31.237,46.8,29.52,46.8,27.36z M45.72,10.368
		c0-1.679-0.604-3.071-1.81-4.176c-1.206-1.104-2.822-1.656-4.85-1.656c-2.076,0-3.717,0.553-4.923,1.656
		c-1.206,1.104-1.809,2.497-1.809,4.176c0,2.977,2.219,5.017,6.66,6.12C43.476,15.384,45.72,13.345,45.72,10.368z"/>
	<path fill="#A4A4A4" d="M72.72,36.36H59.112v-2.592h5.4V6.336l-5.4,4.68l-1.584-1.8l8.248-7.272c1.029,0,1.544,0.913,1.544,2.736
		v29.088h5.4V36.36z"/>
	<path fill="#A4A4A4" d="M92.232,24.48h-12.6v-2.376h12.6V24.48z"/>
	<path fill="#A4A4A4" d="M113.399,25.704h5.112l-0.36,2.664h-4.752v7.992h-2.808v-7.992H96.047
		c0.094-7.151,1.708-13.199,4.839-18.144c3.131-4.943,7.301-7.943,12.512-9V25.704z M110.591,25.704V4.896
		c-3.312,1.632-6.048,4.489-8.208,8.568c-2.064,3.888-3.145,7.968-3.24,12.24H110.591z"/>
	<path fill="#A4A4A4" d="M142.919,25.92c0,3.121-0.876,5.736-2.628,7.848c-1.752,2.112-4.14,3.168-7.164,3.168
		c-3.409,0-6.096-1.296-8.064-3.888c-1.681-2.304-2.52-5.208-2.52-8.712c0-5.52,1.704-10.451,5.112-14.796
		c3.408-4.344,7.751-7.02,13.032-8.028l0.216,2.088c-3.231,0.912-6.173,2.617-8.826,5.112c-2.992,2.784-5.041,6.096-6.15,9.936
		c0.191-0.72,0.888-1.487,2.088-2.304c1.536-0.959,3.312-1.44,5.328-1.44c2.832,0,5.135,1.08,6.912,3.24
		C142.03,20.304,142.919,22.896,142.919,25.92z M140.111,25.956c0-2.41-0.651-4.458-1.954-6.145s-3.087-2.531-5.354-2.531
		c-2.075,0-3.835,0.844-5.282,2.531c-1.447,1.688-2.17,3.735-2.17,6.145c0,2.362,0.724,4.386,2.17,6.074
		c1.446,1.688,3.207,2.53,5.282,2.53c2.315,0,4.112-0.843,5.39-2.53C139.471,30.342,140.111,28.318,140.111,25.956z"/>
	<path fill="#A4A4A4" d="M158.327,36.36h-3.024c0-7.247,1.44-14.184,4.32-20.808c0.672-1.536,1.824-3.683,3.456-6.444
		c1.631-2.76,2.472-4.164,2.52-4.212h-17.352l1.08-2.736h20.232l-0.576,2.88c-3.216,4.224-5.796,8.796-7.74,13.716
		C159.299,23.677,158.327,29.544,158.327,36.36z"/>
	<path fill="#A4A4A4" d="M185.975,24.48h-12.6v-2.376h12.6V24.48z"/>
	<path fill="#A4A4A4" d="M210.598,14.4c0,5.521-1.704,10.452-5.112,14.796c-3.409,4.345-7.752,7.02-13.032,8.028l-0.216-2.088
		c3.231-0.911,6.173-2.616,8.826-5.112c2.99-2.783,5.041-6.095,6.15-9.936c-0.192,0.72-0.889,1.488-2.088,2.304
		c-1.537,0.96-3.312,1.44-5.328,1.44c-2.833,0-5.137-1.08-6.912-3.24c-1.776-2.16-2.664-4.752-2.664-7.776
		c0-3.12,0.875-5.735,2.628-7.848c1.752-2.111,4.14-3.168,7.164-3.168c3.408,0,6.095,1.296,8.064,3.888
		C209.758,7.992,210.598,10.896,210.598,14.4z M207.791,12.78c0-2.361-0.725-4.385-2.171-6.073s-3.208-2.531-5.281-2.531
		c-2.315,0-4.113,0.844-5.391,2.531s-1.917,3.711-1.917,6.073c0,2.41,0.65,4.458,1.953,6.146s3.087,2.53,5.355,2.53
		c2.073,0,3.834-0.843,5.281-2.53S207.791,15.189,207.791,12.78z"/>
	<path fill="#A4A4A4" d="M226.006,36.36h-3.024c0-7.247,1.44-14.184,4.32-20.808c0.672-1.536,1.824-3.683,3.456-6.444
		c1.631-2.76,2.472-4.164,2.52-4.212h-17.352l1.08-2.736h20.232l-0.576,2.88c-3.216,4.224-5.796,8.796-7.74,13.716
		C226.979,23.677,226.006,29.544,226.006,36.36z"/>
	<path fill="#A4A4A4" d="M262.726,25.92c0,3.121-0.876,5.736-2.628,7.848c-1.752,2.112-4.14,3.168-7.164,3.168
		c-3.409,0-6.096-1.296-8.064-3.888c-1.681-2.304-2.52-5.208-2.52-8.712c0-5.52,1.704-10.451,5.112-14.796
		c3.408-4.344,7.751-7.02,13.032-8.028L260.71,3.6c-3.231,0.912-6.173,2.617-8.826,5.112c-2.992,2.784-5.041,6.096-6.15,9.936
		c0.191-0.72,0.888-1.487,2.088-2.304c1.536-0.959,3.312-1.44,5.328-1.44c2.832,0,5.135,1.08,6.912,3.24
		C261.837,20.304,262.726,22.896,262.726,25.92z M259.918,25.956c0-2.41-0.651-4.458-1.954-6.145s-3.087-2.531-5.354-2.531
		c-2.075,0-3.835,0.844-5.282,2.531c-1.447,1.688-2.17,3.735-2.17,6.145c0,2.362,0.724,4.386,2.17,6.074
		c1.446,1.688,3.207,2.53,5.282,2.53c2.315,0,4.112-0.843,5.39-2.53C259.278,30.342,259.918,28.318,259.918,25.956z"/>
	<path fill="#A4A4A4" d="M288.79,25.92c0,3.121-0.876,5.736-2.628,7.848c-1.752,2.112-4.14,3.168-7.164,3.168
		c-3.409,0-6.096-1.296-8.064-3.888c-1.681-2.304-2.52-5.208-2.52-8.712c0-5.52,1.704-10.451,5.112-14.796
		c3.408-4.344,7.751-7.02,13.032-8.028l0.216,2.088c-3.231,0.912-6.173,2.617-8.826,5.112c-2.992,2.784-5.041,6.096-6.15,9.936
		c0.191-0.72,0.888-1.487,2.088-2.304c1.536-0.959,3.312-1.44,5.328-1.44c2.832,0,5.135,1.08,6.912,3.24
		C287.901,20.304,288.79,22.896,288.79,25.92z M285.982,25.956c0-2.41-0.651-4.458-1.954-6.145s-3.087-2.531-5.354-2.531
		c-2.075,0-3.835,0.844-5.282,2.531c-1.447,1.688-2.17,3.735-2.17,6.145c0,2.362,0.724,4.386,2.17,6.074
		c1.446,1.688,3.207,2.53,5.282,2.53c2.315,0,4.112-0.843,5.39-2.53C285.342,30.342,285.982,28.318,285.982,25.956z"/>
	<path fill="#A4A4A4" d="M23.688,66.051c0,3.976-0.745,7.593-2.232,10.85c-1.977,4.168-4.797,6.251-8.46,6.251
		c-3.712,0-6.557-2.083-8.532-6.251c-1.488-3.208-2.232-6.826-2.232-10.85c0-4.837,0.816-8.934,2.448-12.287
		c1.975-3.879,4.748-5.82,8.316-5.82c3.567,0,6.339,1.94,8.316,5.82C22.896,57.117,23.688,61.213,23.688,66.051z M20.88,65.981
		c0-4.185-0.603-7.722-1.808-10.609c-1.447-3.368-3.473-5.052-6.076-5.052c-2.653,0-4.702,1.684-6.148,5.052
		c-1.206,2.84-1.808,6.375-1.808,10.609c0,3.465,0.578,6.593,1.736,9.382c1.447,3.609,3.52,5.413,6.22,5.413
		c2.651,0,4.701-1.803,6.148-5.413C20.301,72.574,20.88,69.446,20.88,65.981z"/>
	<path fill="#A4A4A4" d="M49.608,73.144c0,3.072-0.958,5.472-2.871,7.2s-4.497,2.592-7.749,2.592c-3.205,0-5.764-0.864-7.678-2.592
		c-1.914-1.728-2.87-4.127-2.87-7.2c0-2.352,0.682-4.38,2.045-6.084c1.363-1.704,3.097-2.772,5.202-3.204
		c-1.77-0.528-3.24-1.476-4.411-2.844c-1.171-1.368-1.756-2.844-1.756-4.428c0-2.544,0.884-4.632,2.654-6.264
		c1.769-1.631,4.064-2.448,6.886-2.448c2.773,0,5.044,0.816,6.814,2.448c1.769,1.632,2.654,3.72,2.654,6.264
		c0,1.584-0.586,3.06-1.757,4.428c-1.171,1.368-2.641,2.316-4.41,2.844c2.104,0.432,3.838,1.5,5.202,3.204
		C48.926,68.764,49.608,70.792,49.608,73.144z M46.8,73.36c0-1.872-0.651-3.66-1.953-5.364c-1.303-1.704-3.256-2.628-5.859-2.772
		c-2.556,0.144-4.485,1.069-5.787,2.772c-1.303,1.704-1.953,3.492-1.953,5.364c0,2.16,0.734,3.877,2.206,5.148
		c1.47,1.272,3.339,1.908,5.606,1.908c2.218,0,4.063-0.636,5.534-1.908C46.064,77.237,46.8,75.52,46.8,73.36z M45.72,56.368
		c0-1.679-0.604-3.071-1.81-4.176c-1.206-1.104-2.822-1.656-4.85-1.656c-2.076,0-3.717,0.553-4.923,1.656
		c-1.206,1.104-1.809,2.497-1.809,4.176c0,2.977,2.219,5.017,6.66,6.12C43.476,61.384,45.72,59.345,45.72,56.368z"/>
	<path fill="#A4A4A4" d="M75.24,71.92c0,3.121-0.876,5.736-2.628,7.848c-1.752,2.112-4.14,3.168-7.164,3.168
		c-3.409,0-6.096-1.296-8.064-3.888c-1.681-2.304-2.52-5.208-2.52-8.712c0-5.52,1.704-10.451,5.112-14.796
		c3.408-4.344,7.751-7.02,13.032-8.028l0.216,2.088c-3.231,0.912-6.173,2.617-8.826,5.112c-2.992,2.784-5.041,6.096-6.15,9.936
		c0.191-0.72,0.888-1.487,2.088-2.304c1.536-0.959,3.312-1.44,5.328-1.44c2.832,0,5.135,1.08,6.912,3.24
		C74.351,66.304,75.24,68.896,75.24,71.92z M72.432,71.956c0-2.41-0.651-4.458-1.954-6.145s-3.087-2.531-5.354-2.531
		c-2.075,0-3.835,0.844-5.282,2.531c-1.447,1.688-2.17,3.735-2.17,6.145c0,2.362,0.724,4.386,2.17,6.074
		c1.446,1.688,3.207,2.53,5.282,2.53c2.315,0,4.112-0.843,5.39-2.53C71.792,76.342,72.432,74.318,72.432,71.956z"/>
	<path fill="#A4A4A4" d="M92.232,70.48h-12.6v-2.376h12.6V70.48z"/>
	<path fill="#A4A4A4" d="M116.639,70.552c0,3.697-1.249,6.685-3.744,8.964c-2.496,2.281-5.712,3.42-9.648,3.42
		c-3.312,0-5.904-0.888-7.776-2.664l1.224-2.232c0.671,0.432,1.392,0.84,2.16,1.224c1.343,0.625,3,0.936,4.968,0.936
		c2.592,0,4.884-0.839,6.876-2.52c1.991-1.68,2.988-4.032,2.988-7.056c0-2.592-0.864-4.536-2.592-5.832
		c-1.44-1.152-3.312-1.728-5.616-1.728c-2.016,0-3.625,0.792-4.824,2.376l-1.512,0.144l1.008-17.424h15.408l-0.504,2.736h-12.096
		l-0.648,10.152c1.248-0.479,2.592-0.72,4.032-0.72c2.783,0,5.159,0.864,7.128,2.592C115.583,64.84,116.639,67.384,116.639,70.552z"
		/>
	<path fill="#A4A4A4" d="M132.263,82.36h-3.024c0-7.247,1.44-14.184,4.32-20.808c0.672-1.536,1.824-3.683,3.456-6.444
		c1.631-2.76,2.472-4.164,2.52-4.212h-17.352l1.08-2.736h20.232l-0.576,2.88c-3.216,4.224-5.796,8.796-7.74,13.716
		C133.235,69.677,132.263,75.544,132.263,82.36z"/>
	<path fill="#A4A4A4" d="M169.559,66.051c0,3.976-0.745,7.593-2.232,10.85c-1.977,4.168-4.797,6.251-8.46,6.251
		c-3.712,0-6.557-2.083-8.532-6.251c-1.488-3.208-2.232-6.826-2.232-10.85c0-4.837,0.816-8.934,2.448-12.287
		c1.975-3.879,4.748-5.82,8.316-5.82c3.567,0,6.339,1.94,8.316,5.82C168.767,57.117,169.559,61.213,169.559,66.051z M166.751,65.981
		c0-4.185-0.603-7.722-1.808-10.609c-1.447-3.368-3.473-5.052-6.076-5.052c-2.653,0-4.702,1.684-6.148,5.052
		c-1.206,2.84-1.808,6.375-1.808,10.609c0,3.465,0.578,6.593,1.736,9.382c1.447,3.609,3.52,5.413,6.22,5.413
		c2.651,0,4.701-1.803,6.148-5.413C166.172,72.574,166.751,69.446,166.751,65.981z"/>
	<path fill="#A4A4A4" d="M185.975,70.48h-12.6v-2.376h12.6V70.48z"/>
	<path fill="#A4A4A4" d="M211.534,79.552l-0.576,2.808h-21.6c0.191-1.199,0.527-2.567,1.008-4.104
		c2.063-2.112,4.344-4.367,6.84-6.768c2.495-2.399,5.279-5.447,8.352-9.144c1.536-2.063,2.304-4.032,2.304-5.904
		s-0.601-3.312-1.8-4.32c-1.201-1.008-2.761-1.512-4.68-1.512c-4.32,0-6.768,2.16-7.344,6.48l-2.592-0.72
		c0.288-2.783,1.392-4.919,3.312-6.408c1.728-1.343,3.96-2.016,6.696-2.016c2.688,0,4.896,0.828,6.624,2.484
		c1.728,1.656,2.592,3.733,2.592,6.228c0,3.648-2.88,8.233-8.64,13.752c-4.176,4.129-7.128,7.177-8.856,9.144H211.534z"/>
	<path fill="#A4A4A4" d="M237.238,66.051c0,3.976-0.745,7.593-2.232,10.85c-1.977,4.168-4.797,6.251-8.46,6.251
		c-3.712,0-6.557-2.083-8.532-6.251c-1.488-3.208-2.232-6.826-2.232-10.85c0-4.837,0.816-8.934,2.448-12.287
		c1.975-3.879,4.748-5.82,8.316-5.82c3.567,0,6.339,1.94,8.316,5.82C236.446,57.117,237.238,61.213,237.238,66.051z M234.43,65.981
		c0-4.185-0.603-7.722-1.808-10.609c-1.447-3.368-3.473-5.052-6.076-5.052c-2.653,0-4.702,1.684-6.148,5.052
		c-1.206,2.84-1.808,6.375-1.808,10.609c0,3.465,0.578,6.593,1.736,9.382c1.447,3.609,3.52,5.413,6.22,5.413
		c2.651,0,4.701-1.803,6.148-5.413C233.851,72.574,234.43,69.446,234.43,65.981z"/>
	<path fill="#A4A4A4" d="M263.158,70.768c0,3.648-1.236,6.6-3.708,8.856c-2.473,2.256-5.677,3.431-9.612,3.528
		c-3.168,0.096-5.76-0.792-7.776-2.664l1.224-2.232c1.775,1.344,4.104,2.016,6.984,2.016c2.784,0,5.16-0.936,7.128-2.808
		c1.967-1.872,2.952-4.056,2.952-6.552c0-1.872-0.576-3.431-1.728-4.68c-1.152-1.248-2.617-1.872-4.392-1.872
		c-2.064,0-3.672,0.576-4.824,1.728l-1.368-2.376c1.824-1.416,3.647-2.855,5.472-4.32c2.736-2.285,4.104-4.07,4.104-5.356
		c0-2.333-1.632-3.5-4.896-3.5c-3.6,0-6.289,1.8-8.064,5.4l-2.016-1.08c0.767-2.112,2.088-3.792,3.96-5.04
		c1.872-1.248,3.984-1.872,6.336-1.872c2.016,0,3.732,0.54,5.148,1.62c1.416,1.08,2.124,2.556,2.124,4.428
		c0,2.208-1.969,4.801-5.904,7.776h0.432c2.543,0,4.583,0.853,6.12,2.556C262.39,66.028,263.158,68.176,263.158,70.768z"/>
	<path fill="#A4A4A4" d="M285.334,71.704h5.112l-0.36,2.664h-4.752v7.992h-2.808v-7.992h-14.544
		c0.094-7.151,1.708-13.199,4.839-18.144c3.131-4.943,7.301-7.943,12.512-9V71.704z M282.526,71.704V50.896
		c-3.312,1.632-6.048,4.489-8.208,8.568c-2.064,3.888-3.145,7.968-3.24,12.24H282.526z"/>
	<path fill="#A4A4A4" d="M23.688,112.051c0,3.976-0.745,7.593-2.232,10.85c-1.977,4.168-4.797,6.251-8.46,6.251
		c-3.712,0-6.557-2.083-8.532-6.251c-1.488-3.208-2.232-6.826-2.232-10.85c0-4.837,0.816-8.934,2.448-12.287
		c1.975-3.879,4.748-5.82,8.316-5.82c3.567,0,6.339,1.94,8.316,5.82C22.896,103.117,23.688,107.213,23.688,112.051z M20.88,111.981
		c0-4.185-0.603-7.722-1.808-10.609c-1.447-3.368-3.473-5.052-6.076-5.052c-2.653,0-4.702,1.684-6.148,5.052
		c-1.206,2.84-1.808,6.375-1.808,10.609c0,3.465,0.578,6.593,1.736,9.382c1.447,3.609,3.52,5.413,6.22,5.413
		c2.651,0,4.701-1.803,6.148-5.413C20.301,118.574,20.88,115.446,20.88,111.981z"/>
	<path fill="#A4A4A4" d="M49.608,119.144c0,3.072-0.958,5.472-2.871,7.2s-4.497,2.592-7.749,2.592c-3.205,0-5.764-0.864-7.678-2.592
		c-1.914-1.728-2.87-4.127-2.87-7.2c0-2.352,0.682-4.38,2.045-6.084c1.363-1.704,3.097-2.772,5.202-3.204
		c-1.77-0.528-3.24-1.476-4.411-2.844c-1.171-1.368-1.756-2.844-1.756-4.428c0-2.544,0.884-4.632,2.654-6.264
		c1.769-1.631,4.064-2.448,6.886-2.448c2.773,0,5.044,0.816,6.814,2.448c1.769,1.632,2.654,3.72,2.654,6.264
		c0,1.584-0.586,3.06-1.757,4.428c-1.171,1.368-2.641,2.316-4.41,2.844c2.104,0.432,3.838,1.5,5.202,3.204
		C48.926,114.764,49.608,116.792,49.608,119.144z M46.8,119.36c0-1.872-0.651-3.66-1.953-5.364
		c-1.303-1.704-3.256-2.628-5.859-2.772c-2.556,0.144-4.485,1.069-5.787,2.772c-1.303,1.704-1.953,3.492-1.953,5.364
		c0,2.16,0.734,3.877,2.206,5.148c1.47,1.272,3.339,1.908,5.606,1.908c2.218,0,4.063-0.636,5.534-1.908
		C46.064,123.237,46.8,121.52,46.8,119.36z M45.72,102.368c0-1.679-0.604-3.071-1.81-4.176c-1.206-1.104-2.822-1.656-4.85-1.656
		c-2.076,0-3.717,0.553-4.923,1.656c-1.206,1.104-1.809,2.497-1.809,4.176c0,2.977,2.219,5.017,6.66,6.12
		C43.476,107.384,45.72,105.345,45.72,102.368z"/>
	<path fill="#A4A4A4" d="M75.816,112.051c0,3.976-0.745,7.593-2.232,10.85c-1.977,4.168-4.797,6.251-8.46,6.251
		c-3.712,0-6.557-2.083-8.532-6.251c-1.488-3.208-2.232-6.826-2.232-10.85c0-4.837,0.816-8.934,2.448-12.287
		c1.975-3.879,4.748-5.82,8.316-5.82c3.567,0,6.339,1.94,8.316,5.82C75.024,103.117,75.816,107.213,75.816,112.051z M73.008,111.981
		c0-4.185-0.603-7.722-1.808-10.609c-1.447-3.368-3.473-5.052-6.076-5.052c-2.653,0-4.702,1.684-6.148,5.052
		c-1.206,2.84-1.808,6.375-1.808,10.609c0,3.465,0.578,6.593,1.736,9.382c1.447,3.609,3.52,5.413,6.22,5.413
		c2.651,0,4.701-1.803,6.148-5.413C72.429,118.574,73.008,115.446,73.008,111.981z"/>
	<path fill="#A4A4A4" d="M92.232,116.48h-12.6v-2.376h12.6V116.48z"/>
	<path fill="#A4A4A4" d="M117.431,112.051c0,3.976-0.745,7.593-2.232,10.85c-1.977,4.168-4.797,6.251-8.46,6.251
		c-3.712,0-6.557-2.083-8.532-6.251c-1.488-3.208-2.232-6.826-2.232-10.85c0-4.837,0.816-8.934,2.448-12.287
		c1.975-3.879,4.748-5.82,8.316-5.82c3.567,0,6.339,1.94,8.316,5.82C116.639,103.117,117.431,107.213,117.431,112.051z
		 M114.623,111.981c0-4.185-0.603-7.722-1.808-10.609c-1.447-3.368-3.473-5.052-6.076-5.052c-2.653,0-4.702,1.684-6.148,5.052
		c-1.206,2.84-1.808,6.375-1.808,10.609c0,3.465,0.578,6.593,1.736,9.382c1.447,3.609,3.52,5.413,6.22,5.413
		c2.651,0,4.701-1.803,6.148-5.413C114.044,118.574,114.623,115.446,114.623,111.981z"/>
	<path fill="#A4A4A4" d="M142.919,117.92c0,3.121-0.876,5.736-2.628,7.848c-1.752,2.112-4.14,3.168-7.164,3.168
		c-3.409,0-6.096-1.296-8.064-3.888c-1.681-2.304-2.52-5.208-2.52-8.712c0-5.52,1.704-10.451,5.112-14.796
		c3.408-4.344,7.751-7.02,13.032-8.028l0.216,2.088c-3.231,0.912-6.173,2.617-8.826,5.112c-2.992,2.784-5.041,6.096-6.15,9.936
		c0.191-0.72,0.888-1.487,2.088-2.304c1.536-0.959,3.312-1.44,5.328-1.44c2.832,0,5.135,1.08,6.912,3.24
		C142.03,112.304,142.919,114.896,142.919,117.92z M140.111,117.956c0-2.41-0.651-4.458-1.954-6.145s-3.087-2.531-5.354-2.531
		c-2.075,0-3.835,0.844-5.282,2.531c-1.447,1.688-2.17,3.735-2.17,6.145c0,2.362,0.724,4.386,2.17,6.074
		c1.446,1.688,3.207,2.53,5.282,2.53c2.315,0,4.112-0.843,5.39-2.53C139.471,122.342,140.111,120.318,140.111,117.956z"/>
	<path fill="#A4A4A4" d="M165.527,117.704h5.112l-0.36,2.664h-4.752v7.992h-2.808v-7.992h-14.544
		c0.094-7.151,1.708-13.199,4.839-18.144c3.131-4.943,7.301-7.943,12.512-9V117.704z M162.719,117.704V96.896
		c-3.312,1.632-6.048,4.489-8.208,8.568c-2.064,3.888-3.145,7.968-3.24,12.24H162.719z"/>
	<path fill="#A4A4A4" d="M185.975,116.48h-12.6v-2.376h12.6V116.48z"/>
	<path fill="#A4A4A4" d="M208.078,128.36H194.47v-2.592h5.4V98.336l-5.4,4.68l-1.584-1.8l8.248-7.272
		c1.029,0,1.544,0.913,1.544,2.736v29.088h5.4V128.36z"/>
	<path fill="#A4A4A4" d="M237.598,125.552l-0.576,2.808h-21.6c0.191-1.199,0.527-2.567,1.008-4.104
		c2.063-2.112,4.344-4.367,6.84-6.768c2.495-2.399,5.279-5.447,8.352-9.144c1.536-2.063,2.304-4.032,2.304-5.904
		s-0.601-3.312-1.8-4.32c-1.201-1.008-2.761-1.512-4.68-1.512c-4.32,0-6.768,2.16-7.344,6.48l-2.592-0.72
		c0.288-2.783,1.392-4.919,3.312-6.408c1.728-1.343,3.96-2.016,6.696-2.016c2.688,0,4.896,0.828,6.624,2.484
		c1.728,1.656,2.592,3.733,2.592,6.228c0,3.648-2.88,8.233-8.64,13.752c-4.176,4.129-7.128,7.177-8.856,9.144H237.598z"/>
	<path fill="#A4A4A4" d="M260.206,128.36h-13.608v-2.592h5.4V98.336l-5.4,4.68l-1.584-1.8l8.248-7.272
		c1.029,0,1.544,0.913,1.544,2.736v29.088h5.4V128.36z"/>
	<path fill="#A4A4A4" d="M278.134,128.36h-3.024c0-7.247,1.44-14.184,4.32-20.808c0.672-1.536,1.824-3.683,3.456-6.444
		c1.631-2.76,2.472-4.164,2.52-4.212h-17.352l1.08-2.736h20.232l-0.576,2.88c-3.216,4.224-5.796,8.796-7.74,13.716
		C279.106,115.677,278.134,121.544,278.134,128.36z"/>
	<path fill="#A4A4A4" d="M23.688,158.051c0,3.976-0.745,7.593-2.232,10.85c-1.977,4.168-4.797,6.251-8.46,6.251
		c-3.712,0-6.557-2.083-8.532-6.251c-1.488-3.208-2.232-6.826-2.232-10.85c0-4.837,0.816-8.934,2.448-12.287
		c1.975-3.879,4.748-5.82,8.316-5.82c3.567,0,6.339,1.94,8.316,5.82C22.896,149.117,23.688,153.213,23.688,158.051z M20.88,157.981
		c0-4.185-0.603-7.722-1.808-10.609c-1.447-3.368-3.473-5.052-6.076-5.052c-2.653,0-4.702,1.684-6.148,5.052
		c-1.206,2.84-1.808,6.375-1.808,10.609c0,3.465,0.578,6.593,1.736,9.382c1.447,3.609,3.52,5.413,6.22,5.413
		c2.651,0,4.701-1.803,6.148-5.413C20.301,164.574,20.88,161.446,20.88,157.981z"/>
	<path fill="#A4A4A4" d="M49.608,165.144c0,3.072-0.958,5.472-2.871,7.2s-4.497,2.592-7.749,2.592c-3.205,0-5.764-0.864-7.678-2.592
		c-1.914-1.728-2.87-4.127-2.87-7.2c0-2.352,0.682-4.38,2.045-6.084c1.363-1.704,3.097-2.772,5.202-3.204
		c-1.77-0.528-3.24-1.476-4.411-2.844c-1.171-1.368-1.756-2.844-1.756-4.428c0-2.544,0.884-4.632,2.654-6.264
		c1.769-1.631,4.064-2.448,6.886-2.448c2.773,0,5.044,0.816,6.814,2.448c1.769,1.632,2.654,3.72,2.654,6.264
		c0,1.584-0.586,3.06-1.757,4.428c-1.171,1.368-2.641,2.316-4.41,2.844c2.104,0.432,3.838,1.5,5.202,3.204
		C48.926,160.764,49.608,162.792,49.608,165.144z M46.8,165.36c0-1.872-0.651-3.66-1.953-5.364
		c-1.303-1.704-3.256-2.628-5.859-2.772c-2.556,0.144-4.485,1.069-5.787,2.772c-1.303,1.704-1.953,3.492-1.953,5.364
		c0,2.16,0.734,3.877,2.206,5.148c1.47,1.272,3.339,1.908,5.606,1.908c2.218,0,4.063-0.636,5.534-1.908
		C46.064,169.237,46.8,167.52,46.8,165.36z M45.72,148.368c0-1.679-0.604-3.071-1.81-4.176c-1.206-1.104-2.822-1.656-4.85-1.656
		c-2.076,0-3.717,0.553-4.923,1.656c-1.206,1.104-1.809,2.497-1.809,4.176c0,2.977,2.219,5.017,6.66,6.12
		C43.476,153.384,45.72,151.345,45.72,148.368z"/>
	<path fill="#A4A4A4" d="M75.672,165.144c0,3.072-0.958,5.472-2.871,7.2s-4.497,2.592-7.749,2.592c-3.205,0-5.764-0.864-7.678-2.592
		c-1.914-1.728-2.87-4.127-2.87-7.2c0-2.352,0.682-4.38,2.045-6.084c1.363-1.704,3.097-2.772,5.202-3.204
		c-1.77-0.528-3.24-1.476-4.411-2.844c-1.171-1.368-1.756-2.844-1.756-4.428c0-2.544,0.884-4.632,2.654-6.264
		c1.769-1.631,4.064-2.448,6.886-2.448c2.773,0,5.044,0.816,6.814,2.448c1.769,1.632,2.654,3.72,2.654,6.264
		c0,1.584-0.586,3.06-1.757,4.428c-1.171,1.368-2.641,2.316-4.41,2.844c2.104,0.432,3.838,1.5,5.202,3.204
		C74.99,160.764,75.672,162.792,75.672,165.144z M72.864,165.36c0-1.872-0.651-3.66-1.953-5.364
		c-1.303-1.704-3.256-2.628-5.859-2.772c-2.556,0.144-4.485,1.069-5.787,2.772c-1.303,1.704-1.953,3.492-1.953,5.364
		c0,2.16,0.734,3.877,2.206,5.148c1.47,1.272,3.339,1.908,5.606,1.908c2.218,0,4.063-0.636,5.534-1.908
		C72.128,169.237,72.864,167.52,72.864,165.36z M71.784,148.368c0-1.679-0.604-3.071-1.81-4.176
		c-1.206-1.104-2.822-1.656-4.85-1.656c-2.076,0-3.717,0.553-4.923,1.656c-1.206,1.104-1.809,2.497-1.809,4.176
		c0,2.977,2.219,5.017,6.66,6.12C69.54,153.384,71.784,151.345,71.784,148.368z"/>
	<path fill="#A4A4A4" d="M92.232,162.48h-12.6v-2.376h12.6V162.48z"/>
	<path fill="#A4A4A4" d="M113.399,163.704h5.112l-0.36,2.664h-4.752v7.992h-2.808v-7.992H96.047
		c0.094-7.151,1.708-13.199,4.839-18.144c3.131-4.943,7.301-7.943,12.512-9V163.704z M110.591,163.704v-20.808
		c-3.312,1.632-6.048,4.489-8.208,8.568c-2.064,3.888-3.145,7.968-3.24,12.24H110.591z"/>
	<path fill="#A4A4A4" d="M143.351,165.144c0,3.072-0.958,5.472-2.871,7.2s-4.497,2.592-7.749,2.592
		c-3.205,0-5.764-0.864-7.678-2.592c-1.914-1.728-2.87-4.127-2.87-7.2c0-2.352,0.682-4.38,2.045-6.084
		c1.363-1.704,3.097-2.772,5.202-3.204c-1.77-0.528-3.24-1.476-4.411-2.844c-1.171-1.368-1.756-2.844-1.756-4.428
		c0-2.544,0.884-4.632,2.654-6.264c1.769-1.631,4.064-2.448,6.886-2.448c2.773,0,5.044,0.816,6.814,2.448
		c1.769,1.632,2.654,3.72,2.654,6.264c0,1.584-0.586,3.06-1.757,4.428c-1.171,1.368-2.641,2.316-4.41,2.844
		c2.104,0.432,3.838,1.5,5.202,3.204C142.669,160.764,143.351,162.792,143.351,165.144z M140.543,165.36
		c0-1.872-0.651-3.66-1.953-5.364c-1.303-1.704-3.256-2.628-5.859-2.772c-2.556,0.144-4.485,1.069-5.787,2.772
		c-1.303,1.704-1.953,3.492-1.953,5.364c0,2.16,0.734,3.877,2.206,5.148c1.47,1.272,3.339,1.908,5.606,1.908
		c2.218,0,4.063-0.636,5.534-1.908C139.808,169.237,140.543,167.52,140.543,165.36z M139.463,148.368
		c0-1.679-0.604-3.071-1.81-4.176c-1.206-1.104-2.822-1.656-4.85-1.656c-2.076,0-3.717,0.553-4.923,1.656
		c-1.206,1.104-1.809,2.497-1.809,4.176c0,2.977,2.219,5.017,6.66,6.12C137.219,153.384,139.463,151.345,139.463,148.368z"/>
	<path fill="#A4A4A4" d="M168.767,162.552c0,3.697-1.249,6.685-3.744,8.964c-2.496,2.281-5.712,3.42-9.648,3.42
		c-3.312,0-5.904-0.888-7.776-2.664l1.224-2.232c0.671,0.432,1.392,0.84,2.16,1.224c1.343,0.625,3,0.936,4.968,0.936
		c2.592,0,4.884-0.839,6.876-2.52c1.991-1.68,2.988-4.032,2.988-7.056c0-2.592-0.864-4.536-2.592-5.832
		c-1.44-1.152-3.312-1.728-5.616-1.728c-2.016,0-3.625,0.792-4.824,2.376l-1.512,0.144l1.008-17.424h15.408l-0.504,2.736h-12.096
		l-0.648,10.152c1.248-0.479,2.592-0.72,4.032-0.72c2.783,0,5.159,0.864,7.128,2.592
		C167.711,156.84,168.767,159.384,168.767,162.552z"/>
	<path fill="#A4A4A4" d="M185.975,162.48h-12.6v-2.376h12.6V162.48z"/>
	<path fill="#A4A4A4" d="M211.03,162.768c0,3.648-1.236,6.6-3.708,8.856c-2.473,2.256-5.677,3.431-9.612,3.528
		c-3.168,0.096-5.76-0.792-7.776-2.664l1.224-2.232c1.775,1.344,4.104,2.016,6.984,2.016c2.784,0,5.16-0.936,7.128-2.808
		c1.967-1.872,2.952-4.056,2.952-6.552c0-1.872-0.576-3.431-1.728-4.68c-1.152-1.248-2.617-1.872-4.392-1.872
		c-2.064,0-3.672,0.576-4.824,1.728l-1.368-2.376c1.824-1.416,3.647-2.855,5.472-4.32c2.736-2.285,4.104-4.07,4.104-5.356
		c0-2.333-1.632-3.5-4.896-3.5c-3.6,0-6.289,1.8-8.064,5.4l-2.016-1.08c0.767-2.112,2.088-3.792,3.96-5.04
		c1.872-1.248,3.984-1.872,6.336-1.872c2.016,0,3.732,0.54,5.148,1.62c1.416,1.08,2.124,2.556,2.124,4.428
		c0,2.208-1.969,4.801-5.904,7.776h0.432c2.543,0,4.583,0.853,6.12,2.556C210.262,158.028,211.03,160.176,211.03,162.768z"/>
	<path fill="#A4A4A4" d="M237.094,162.768c0,3.648-1.236,6.6-3.708,8.856c-2.473,2.256-5.677,3.431-9.612,3.528
		c-3.168,0.096-5.76-0.792-7.776-2.664l1.224-2.232c1.775,1.344,4.104,2.016,6.984,2.016c2.784,0,5.16-0.936,7.128-2.808
		c1.967-1.872,2.952-4.056,2.952-6.552c0-1.872-0.576-3.431-1.728-4.68c-1.152-1.248-2.617-1.872-4.392-1.872
		c-2.064,0-3.672,0.576-4.824,1.728l-1.368-2.376c1.824-1.416,3.647-2.855,5.472-4.32c2.736-2.285,4.104-4.07,4.104-5.356
		c0-2.333-1.632-3.5-4.896-3.5c-3.6,0-6.289,1.8-8.064,5.4l-2.016-1.08c0.767-2.112,2.088-3.792,3.96-5.04
		c1.872-1.248,3.984-1.872,6.336-1.872c2.016,0,3.732,0.54,5.148,1.62c1.416,1.08,2.124,2.556,2.124,4.428
		c0,2.208-1.969,4.801-5.904,7.776h0.432c2.543,0,4.583,0.853,6.12,2.556C236.326,158.028,237.094,160.176,237.094,162.768z"/>
	<path fill="#A4A4A4" d="M263.662,171.552l-0.576,2.808h-21.6c0.191-1.199,0.527-2.567,1.008-4.104
		c2.063-2.112,4.344-4.367,6.84-6.768c2.495-2.399,5.279-5.447,8.352-9.144c1.536-2.063,2.304-4.032,2.304-5.904
		s-0.601-3.312-1.8-4.32c-1.201-1.008-2.761-1.512-4.68-1.512c-4.32,0-6.768,2.16-7.344,6.48l-2.592-0.72
		c0.288-2.783,1.392-4.919,3.312-6.408c1.728-1.343,3.96-2.016,6.696-2.016c2.688,0,4.896,0.828,6.624,2.484
		c1.728,1.656,2.592,3.733,2.592,6.228c0,3.648-2.88,8.233-8.64,13.752c-4.176,4.129-7.128,7.177-8.856,9.144H263.662z"/>
	<path fill="#A4A4A4" d="M289.222,162.768c0,3.648-1.236,6.6-3.708,8.856c-2.473,2.256-5.677,3.431-9.612,3.528
		c-3.168,0.096-5.76-0.792-7.776-2.664l1.224-2.232c1.775,1.344,4.104,2.016,6.984,2.016c2.784,0,5.16-0.936,7.128-2.808
		c1.967-1.872,2.952-4.056,2.952-6.552c0-1.872-0.576-3.431-1.728-4.68c-1.152-1.248-2.617-1.872-4.392-1.872
		c-2.064,0-3.672,0.576-4.824,1.728l-1.368-2.376c1.824-1.416,3.647-2.855,5.472-4.32c2.736-2.285,4.104-4.07,4.104-5.356
		c0-2.333-1.632-3.5-4.896-3.5c-3.6,0-6.289,1.8-8.064,5.4l-2.016-1.08c0.767-2.112,2.088-3.792,3.96-5.04
		c1.872-1.248,3.984-1.872,6.336-1.872c2.016,0,3.732,0.54,5.148,1.62c1.416,1.08,2.124,2.556,2.124,4.428
		c0,2.208-1.969,4.801-5.904,7.776h0.432c2.543,0,4.583,0.853,6.12,2.556C288.454,158.028,289.222,160.176,289.222,162.768z"/>
	<path fill="#A4A4A4" d="M23.688,204.051c0,3.976-0.745,7.593-2.232,10.85c-1.977,4.168-4.797,6.251-8.46,6.251
		c-3.712,0-6.557-2.083-8.532-6.251c-1.488-3.208-2.232-6.826-2.232-10.85c0-4.837,0.816-8.934,2.448-12.287
		c1.975-3.879,4.748-5.82,8.316-5.82c3.567,0,6.339,1.94,8.316,5.82C22.896,195.117,23.688,199.213,23.688,204.051z M20.88,203.981
		c0-4.185-0.603-7.722-1.808-10.609c-1.447-3.368-3.473-5.052-6.076-5.052c-2.653,0-4.702,1.684-6.148,5.052
		c-1.206,2.84-1.808,6.375-1.808,10.609c0,3.465,0.578,6.593,1.736,9.382c1.447,3.609,3.52,5.413,6.22,5.413
		c2.651,0,4.701-1.803,6.148-5.413C20.301,210.574,20.88,207.446,20.88,203.981z"/>
	<path fill="#A4A4A4" d="M49.608,211.144c0,3.072-0.958,5.472-2.871,7.2s-4.497,2.592-7.749,2.592c-3.205,0-5.764-0.864-7.678-2.592
		c-1.914-1.728-2.87-4.127-2.87-7.2c0-2.352,0.682-4.38,2.045-6.084c1.363-1.704,3.097-2.772,5.202-3.204
		c-1.77-0.528-3.24-1.476-4.411-2.844c-1.171-1.368-1.756-2.844-1.756-4.428c0-2.544,0.884-4.632,2.654-6.264
		c1.769-1.631,4.064-2.448,6.886-2.448c2.773,0,5.044,0.816,6.814,2.448c1.769,1.632,2.654,3.72,2.654,6.264
		c0,1.584-0.586,3.06-1.757,4.428c-1.171,1.368-2.641,2.316-4.41,2.844c2.104,0.432,3.838,1.5,5.202,3.204
		C48.926,206.764,49.608,208.792,49.608,211.144z M46.8,211.36c0-1.872-0.651-3.66-1.953-5.364
		c-1.303-1.704-3.256-2.628-5.859-2.772c-2.556,0.144-4.485,1.069-5.787,2.772c-1.303,1.704-1.953,3.492-1.953,5.364
		c0,2.16,0.734,3.877,2.206,5.148c1.47,1.272,3.339,1.908,5.606,1.908c2.218,0,4.063-0.636,5.534-1.908
		C46.064,215.237,46.8,213.52,46.8,211.36z M45.72,194.368c0-1.679-0.604-3.071-1.81-4.176c-1.206-1.104-2.822-1.656-4.85-1.656
		c-2.076,0-3.717,0.553-4.923,1.656c-1.206,1.104-1.809,2.497-1.809,4.176c0,2.977,2.219,5.017,6.66,6.12
		C43.476,199.384,45.72,197.345,45.72,194.368z"/>
	<path fill="#A4A4A4" d="M71.784,209.704h5.112l-0.36,2.664h-4.752v7.992h-2.808v-7.992H54.432
		c0.094-7.151,1.708-13.199,4.839-18.144c3.131-4.943,7.301-7.943,12.512-9V209.704z M68.976,209.704v-20.808
		c-3.312,1.632-6.048,4.489-8.208,8.568c-2.064,3.888-3.145,7.968-3.24,12.24H68.976z"/>
	<path fill="#A4A4A4" d="M92.232,208.48h-12.6v-2.376h12.6V208.48z"/>
	<path fill="#A4A4A4" d="M106.199,220.36h-3.024c0-7.247,1.44-14.184,4.32-20.808c0.672-1.536,1.824-3.683,3.456-6.444
		c1.631-2.76,2.472-4.164,2.52-4.212H96.119l1.08-2.736h20.232l-0.576,2.88c-3.216,4.224-5.796,8.796-7.74,13.716
		C107.171,207.677,106.199,213.544,106.199,220.36z"/>
	<path fill="#A4A4A4" d="M142.919,198.4c0,5.521-1.704,10.452-5.112,14.796c-3.409,4.345-7.752,7.02-13.032,8.028l-0.216-2.088
		c3.231-0.911,6.173-2.616,8.826-5.112c2.99-2.783,5.041-6.095,6.15-9.936c-0.192,0.72-0.889,1.488-2.088,2.304
		c-1.537,0.96-3.312,1.44-5.328,1.44c-2.833,0-5.137-1.08-6.912-3.24c-1.776-2.16-2.664-4.752-2.664-7.776
		c0-3.12,0.875-5.735,2.628-7.848c1.752-2.111,4.14-3.168,7.164-3.168c3.408,0,6.095,1.296,8.064,3.888
		C142.079,191.992,142.919,194.896,142.919,198.4z M140.111,196.78c0-2.361-0.725-4.385-2.171-6.073s-3.208-2.531-5.281-2.531
		c-2.315,0-4.113,0.844-5.391,2.531s-1.917,3.711-1.917,6.073c0,2.41,0.65,4.458,1.953,6.146s3.087,2.53,5.355,2.53
		c2.073,0,3.834-0.843,5.281-2.53S140.111,199.189,140.111,196.78z"/>
	<path fill="#A4A4A4" d="M169.919,217.552l-0.576,2.808h-21.6c0.191-1.199,0.527-2.567,1.008-4.104
		c2.063-2.112,4.344-4.367,6.84-6.768c2.495-2.399,5.279-5.447,8.352-9.144c1.536-2.063,2.304-4.032,2.304-5.904
		s-0.601-3.312-1.8-4.32c-1.201-1.008-2.761-1.512-4.68-1.512c-4.32,0-6.768,2.16-7.344,6.48l-2.592-0.72
		c0.288-2.783,1.392-4.919,3.312-6.408c1.728-1.343,3.96-2.016,6.696-2.016c2.688,0,4.896,0.828,6.624,2.484
		c1.728,1.656,2.592,3.733,2.592,6.228c0,3.648-2.88,8.233-8.64,13.752c-4.176,4.129-7.128,7.177-8.856,9.144H169.919z"/>
	<path fill="#A4A4A4" d="M185.975,208.48h-12.6v-2.376h12.6V208.48z"/>
	<path fill="#A4A4A4" d="M210.382,208.552c0,3.697-1.249,6.685-3.744,8.964c-2.496,2.281-5.712,3.42-9.648,3.42
		c-3.312,0-5.904-0.888-7.776-2.664l1.224-2.232c0.671,0.432,1.392,0.84,2.16,1.224c1.343,0.625,3,0.936,4.968,0.936
		c2.592,0,4.884-0.839,6.876-2.52c1.991-1.68,2.988-4.032,2.988-7.056c0-2.592-0.864-4.536-2.592-5.832
		c-1.44-1.152-3.312-1.728-5.616-1.728c-2.016,0-3.625,0.792-4.824,2.376l-1.512,0.144l1.008-17.424h15.408l-0.504,2.736h-12.096
		l-0.648,10.152c1.248-0.479,2.592-0.72,4.032-0.72c2.783,0,5.159,0.864,7.128,2.592
		C209.326,202.84,210.382,205.384,210.382,208.552z"/>
	<path fill="#A4A4A4" d="M236.662,198.4c0,5.521-1.704,10.452-5.112,14.796c-3.409,4.345-7.752,7.02-13.032,8.028l-0.216-2.088
		c3.231-0.911,6.173-2.616,8.826-5.112c2.99-2.783,5.041-6.095,6.15-9.936c-0.192,0.72-0.889,1.488-2.088,2.304
		c-1.537,0.96-3.312,1.44-5.328,1.44c-2.833,0-5.137-1.08-6.912-3.24c-1.776-2.16-2.664-4.752-2.664-7.776
		c0-3.12,0.875-5.735,2.628-7.848c1.752-2.111,4.14-3.168,7.164-3.168c3.408,0,6.095,1.296,8.064,3.888
		C235.822,191.992,236.662,194.896,236.662,198.4z M233.854,196.78c0-2.361-0.725-4.385-2.171-6.073s-3.208-2.531-5.281-2.531
		c-2.315,0-4.113,0.844-5.391,2.531s-1.917,3.711-1.917,6.073c0,2.41,0.65,4.458,1.953,6.146s3.087,2.53,5.355,2.53
		c2.073,0,3.834-0.843,5.281-2.53S233.854,199.189,233.854,196.78z"/>
	<path fill="#A4A4A4" d="M252.07,220.36h-3.024c0-7.247,1.44-14.184,4.32-20.808c0.672-1.536,1.824-3.683,3.456-6.444
		c1.631-2.76,2.472-4.164,2.52-4.212H241.99l1.08-2.736h20.232l-0.576,2.88c-3.216,4.224-5.796,8.796-7.74,13.716
		C253.042,207.677,252.07,213.544,252.07,220.36z"/>
	<path fill="#A4A4A4" d="M288.574,208.552c0,3.697-1.249,6.685-3.744,8.964c-2.496,2.281-5.712,3.42-9.648,3.42
		c-3.312,0-5.904-0.888-7.776-2.664l1.224-2.232c0.671,0.432,1.392,0.84,2.16,1.224c1.343,0.625,3,0.936,4.968,0.936
		c2.592,0,4.884-0.839,6.876-2.52c1.991-1.68,2.988-4.032,2.988-7.056c0-2.592-0.864-4.536-2.592-5.832
		c-1.44-1.152-3.312-1.728-5.616-1.728c-2.016,0-3.625,0.792-4.824,2.376l-1.512,0.144l1.008-17.424h15.408l-0.504,2.736h-12.096
		l-0.648,10.152c1.248-0.479,2.592-0.72,4.032-0.72c2.783,0,5.159,0.864,7.128,2.592
		C287.518,202.84,288.574,205.384,288.574,208.552z"/>
	<path fill="#A4A4A4" d="M14.976,234.823c-0.144-0.047-0.432-0.072-0.864-0.072c-3.697,0-6.145,2.313-7.344,6.935
		c-0.144,0.53-0.216,1.35-0.216,2.456v13.218H3.744v-16.488c0-3.6-0.241-6.264-0.72-7.992H5.4c0.528,1.057,0.792,2.689,0.792,4.896
		c1.536-3.6,4.007-5.4,7.416-5.4c0.432,0,0.888,0.049,1.368,0.145V234.823z"/>
	<path fill="#A4A4A4" d="M39.023,253.903l0.216,2.376c-2.785,1.152-5.809,1.729-9.072,1.729c-3.744,0-6.78-1.152-9.108-3.456
		c-2.329-2.305-3.492-5.231-3.492-8.784c0-4.032,1.164-7.272,3.492-9.72c2.328-2.448,5.267-3.673,8.82-3.673
		c6.864,0,10.368,4.297,10.512,12.889H20.375c0.096,3.287,1.068,5.836,2.916,7.648c1.847,1.813,4.236,2.72,7.164,2.72
		C33.335,255.632,36.191,255.056,39.023,253.903z M37.728,243.031c-0.048-1.968-0.601-3.719-1.656-5.256
		c-1.44-2.111-3.625-3.168-6.552-3.168c-2.64,0-4.8,0.961-6.48,2.88c-1.344,1.537-2.185,3.384-2.52,5.544H37.728z"/>
	<path fill="#A4A4A4" d="M62.423,240.943c0,2.688-0.828,4.824-2.484,6.408c-1.656,1.584-3.708,2.376-6.156,2.376
		c-1.488,0-2.761-0.264-3.816-0.792c-0.288,0.72-0.432,1.416-0.432,2.088c0,1.249,1.944,2.424,5.832,3.528
		c4.608,1.296,6.912,3.646,6.912,7.056c0,2.063-0.756,3.755-2.268,5.076c-1.512,1.319-3.708,1.979-6.588,1.979
		c-2.545,0-4.873-0.629-6.984-1.887l1.008-2.289c2.063,1.199,4.127,1.8,6.192,1.8c1.775,0,3.24-0.409,4.392-1.226
		c1.152-0.819,1.728-1.877,1.728-3.175c0-2.31-1.886-4.09-5.655-5.341c-2.292-0.721-3.867-1.37-4.725-1.947
		c-1.48-0.913-2.22-2.093-2.22-3.536c0-0.866,0.24-2.021,0.72-3.464c-1.825-1.924-2.736-3.968-2.736-6.132
		c0-2.598,0.819-4.69,2.458-6.277c1.638-1.588,3.566-2.382,5.785-2.382h9.601v2.304l-3.528-0.36
		C61.434,236.672,62.423,238.736,62.423,240.943z M59.903,241.304c0-1.584-0.502-2.976-1.503-4.177
		c-1.146-1.439-2.697-2.159-4.653-2.159c-1.909,0-3.388,0.637-4.438,1.907c-1.05,1.272-1.574,2.772-1.574,4.5
		c0,1.921,0.644,3.456,1.933,4.608c1.192,1.057,2.552,1.584,4.079,1.584c1.718,0,3.174-0.551,4.366-1.656
		C59.305,244.808,59.903,243.272,59.903,241.304z"/>
	<path fill="#A4A4A4" d="M72.286,225.463c0,0.673-0.216,1.213-0.648,1.62c-0.432,0.408-0.984,0.612-1.656,0.612
		c-0.673,0-1.213-0.204-1.62-0.612c-0.408-0.407-0.612-0.947-0.612-1.62c0-0.671,0.204-1.224,0.612-1.656
		c0.407-0.432,0.947-0.648,1.62-0.648c0.671,0,1.224,0.216,1.656,0.648C72.07,224.239,72.286,224.792,72.286,225.463z
		 M71.494,257.359h-2.808v-24.48h2.808V257.359z"/>
	<path fill="#A4A4A4" d="M93.093,250.879c0,2.064-0.781,3.77-2.34,5.112c-1.561,1.345-3.733,2.017-6.516,2.017
		c-2.401,0-4.705-0.648-6.912-1.944l1.08-2.304c2.304,1.248,4.32,1.872,6.048,1.872c4.032,0,6.048-1.513,6.048-4.536
		c0-2.352-1.897-4.104-5.688-5.256c-4.369-1.344-6.552-3.552-6.552-6.624c0-1.872,0.695-3.48,2.088-4.824
		c1.392-1.344,3.359-2.017,5.904-2.017c2.543,0,4.56,0.553,6.048,1.656l-1.152,2.304c-1.44-1.151-3.24-1.728-5.4-1.728
		c-1.537,0-2.736,0.408-3.6,1.224c-0.864,0.817-1.296,1.825-1.296,3.024c0,1.92,1.883,3.528,5.649,4.824
		C90.896,245.168,93.093,247.567,93.093,250.879z"/>
	<path fill="#A4A4A4" d="M132.189,244.688c0,3.265-1.002,6.048-3.006,8.352c-2.004,2.305-4.174,3.528-6.512,3.672l-2.218,0.145
		l-0.716-3.24c-1.921,2.448-4.466,3.672-7.634,3.672c-0.576,0-1.033-0.023-1.368-0.071c-1.537-0.239-2.846-0.907-3.926-2.005
		c-1.08-1.099-1.62-2.364-1.62-3.797c0-5.349,4.799-8.022,14.4-8.022v-0.364c0-4.125-1.944-6.188-5.832-6.188
		c-2.113,0-3.913,0.575-5.4,1.728l-0.792-1.8c1.872-1.392,3.984-2.088,6.336-2.088c5.52,0,8.28,3.049,8.28,9.144v7.704
		c0,1.057,0.094,2.041,0.286,2.952c1.854-0.096,3.542-1.082,5.063-2.961c1.521-1.878,2.283-4.093,2.283-6.645
		c0-3.996-1.245-7.307-3.735-9.931c-2.491-2.623-5.866-3.936-10.127-3.936c-4.502,0-8.237,1.492-11.205,4.474
		c-3.161,3.176-4.741,7.266-4.741,12.269c0,4.138,1.32,7.566,3.96,10.284c2.64,2.717,5.904,4.077,9.792,4.077
		c3.312,0,6.12-0.72,8.424-2.16l1.008,2.088c-2.88,1.536-6.096,2.305-9.648,2.305c-4.512,0-8.364-1.537-11.556-4.608
		c-3.192-3.071-4.788-6.984-4.788-11.736c0-5.23,1.676-9.647,5.03-13.248c3.543-3.839,8.214-5.76,14.011-5.76
		c4.79,0,8.646,1.489,11.568,4.464C130.728,236.432,132.189,240.176,132.189,244.688z M119.589,249.8v-4.393
		c-7.873,0.097-11.808,1.944-11.808,5.544c0,2.88,1.472,4.32,4.419,4.32c3.476,0,5.892-1.512,7.244-4.536
		C119.541,250.544,119.589,250.231,119.589,249.8z"/>
	<path fill="#A4A4A4" d="M155.661,253.903l1.008,2.322c-2.064,1.188-4.584,1.782-7.56,1.782c-4.032,0-7.212-1.164-9.54-3.492
		c-2.329-2.328-3.492-5.437-3.492-9.324s1.164-6.995,3.492-9.324c2.328-2.327,5.508-3.492,9.54-3.492
		c2.976,0,5.496,0.595,7.56,1.782l-1.008,2.322c-1.776-1.152-4.008-1.729-6.696-1.729c-2.928,0-5.34,0.931-7.236,2.789
		c-1.897,1.859-2.844,4.41-2.844,7.651c0,3.242,0.947,5.793,2.844,7.651c1.896,1.859,4.308,2.789,7.236,2.789
		C151.652,255.632,153.884,255.056,155.661,253.903z"/>
	<path fill="#A4A4A4" d="M184.604,245.191c0,3.6-1.128,6.648-3.384,9.144c-2.257,2.497-5.232,3.744-8.928,3.744
		c-3.697,0-6.672-1.247-8.928-3.744c-2.257-2.495-3.384-5.544-3.384-9.144s1.127-6.636,3.384-9.108
		c2.256-2.472,5.231-3.708,8.928-3.708c3.695,0,6.671,1.236,8.928,3.708C183.476,238.556,184.604,241.592,184.604,245.191z
		 M181.796,245.191c0-2.976-0.893-5.46-2.68-7.452c-1.787-1.991-4.062-2.988-6.824-2.988c-2.763,0-5.038,0.997-6.824,2.988
		c-1.787,1.992-2.68,4.477-2.68,7.452c0,2.977,0.893,5.472,2.68,7.488c1.786,2.016,4.061,3.023,6.824,3.023
		c2.763,0,5.038-1.008,6.824-3.023C180.903,250.663,181.796,248.168,181.796,245.191z"/>
	<path fill="#A4A4A4" d="M226.148,257.359h-2.808v-13.493c0-2.774-0.565-4.987-1.692-6.639c-1.128-1.65-2.772-2.477-4.932-2.477
		c-1.872,0-3.517,0.73-4.932,2.189c-1.417,1.46-2.124,3.099-2.124,4.916v15.503h-2.808v-14.785c0-5.215-2.064-7.823-6.192-7.823
		c-1.92,0-3.648,0.826-5.184,2.477c-1.537,1.651-2.304,3.434-2.304,5.347v14.785h-2.808v-18.432c0-1.296-0.169-3.313-0.504-6.049
		h2.664c0.335,1.009,0.528,2.474,0.576,4.393c1.872-3.264,4.608-4.896,8.208-4.896c3.312,0,5.784,1.825,7.416,5.473
		c1.919-3.647,4.848-5.473,8.784-5.473c2.688,0,4.799,1.021,6.336,3.061c1.536,2.041,2.304,4.813,2.304,8.315V257.359z"/>
	<path fill="#A4A4A4" d="M251.42,253.903l1.008,2.322c-2.064,1.188-4.584,1.782-7.56,1.782c-4.032,0-7.212-1.164-9.54-3.492
		c-2.329-2.328-3.492-5.437-3.492-9.324s1.164-6.995,3.492-9.324c2.328-2.327,5.508-3.492,9.54-3.492
		c2.976,0,5.496,0.595,7.56,1.782l-1.008,2.322c-1.776-1.152-4.008-1.729-6.696-1.729c-2.928,0-5.34,0.931-7.236,2.789
		c-1.897,1.859-2.844,4.41-2.844,7.651c0,3.242,0.947,5.793,2.844,7.651c1.896,1.859,4.308,2.789,7.236,2.789
		C247.412,255.632,249.644,255.056,251.42,253.903z"/>
	<path fill="#A4A4A4" d="M275.612,257.359l-2.52,0.504l-1.008-3.96c-2.208,2.736-5.112,4.104-8.712,4.104
		c-2.113,0-3.937-0.598-5.472-1.793c-1.537-1.194-2.304-2.843-2.304-4.945c0-6.068,5.303-9.103,15.912-9.103h0.432v-0.437
		c0-1.599-0.36-3.003-1.08-4.215c-1.105-1.938-2.977-2.908-5.616-2.908c-1.681,0-4.273,0.553-7.776,1.656l-0.36-2.593
		c2.688-0.863,5.472-1.296,8.352-1.296c6.192,0,9.288,3.409,9.288,10.225v8.784C274.748,253.399,275.036,255.392,275.612,257.359z
		 M271.939,249.439v-4.896c-8.928,0-13.392,2.064-13.392,6.192c0,1.584,0.479,2.797,1.44,3.636c0.959,0.841,2.16,1.261,3.6,1.261
		c3.792,0,6.456-1.608,7.992-4.824C271.819,250.279,271.939,249.824,271.939,249.439z"/>
	<path fill="#A4A4A4" d="M318.019,257.359h-2.808v-13.493c0-2.774-0.565-4.987-1.692-6.639c-1.128-1.65-2.772-2.477-4.932-2.477
		c-1.872,0-3.517,0.73-4.932,2.189c-1.417,1.46-2.124,3.099-2.124,4.916v15.503h-2.808v-14.785c0-5.215-2.064-7.823-6.192-7.823
		c-1.92,0-3.648,0.826-5.184,2.477c-1.537,1.651-2.304,3.434-2.304,5.347v14.785h-2.808v-18.432c0-1.296-0.169-3.313-0.504-6.049
		h2.664c0.335,1.009,0.528,2.474,0.576,4.393c1.872-3.264,4.608-4.896,8.208-4.896c3.312,0,5.784,1.825,7.416,5.473
		c1.919-3.647,4.848-5.473,8.784-5.473c2.688,0,4.799,1.021,6.336,3.061c1.536,2.041,2.304,4.813,2.304,8.315V257.359z"/>
	<path fill="#A4A4A4" d="M348.619,245.552c0,3.6-0.937,6.528-2.809,8.783c-2.024,2.448-4.747,3.673-8.17,3.673
		c-4.097,0-7.205-1.729-9.326-5.185v16.561h-2.808v-30.385c0-2.783-0.072-4.775-0.216-5.976h2.592
		c0.096,1.249,0.144,2.688,0.144,4.32c2.256-3.313,5.304-4.969,9.145-4.969c3.503,0,6.287,1.213,8.352,3.637
		C347.586,238.436,348.619,241.616,348.619,245.552z M346.026,245.479c0-3.359-0.784-5.987-2.35-7.884
		c-1.566-1.896-3.843-2.845-6.831-2.845c-2.41,0-4.435,0.769-6.073,2.305s-2.458,3.456-2.458,5.76v4.104
		c0,2.641,0.939,4.801,2.819,6.48c1.687,1.584,3.687,2.376,6.001,2.376c2.794,0,5.012-0.983,6.651-2.952
		C345.279,250.951,346.026,248.503,346.026,245.479z"/>
	<path fill="#A4A4A4" d="M358.914,255.344c0,0.673-0.252,1.248-0.756,1.728c-0.505,0.479-1.093,0.72-1.765,0.72
		c-0.673,0-1.248-0.24-1.728-0.72c-0.48-0.479-0.721-1.055-0.721-1.728c0-0.672,0.24-1.261,0.721-1.765
		c0.479-0.504,1.055-0.756,1.728-0.756c0.672,0,1.26,0.252,1.765,0.756C358.662,254.083,358.914,254.672,358.914,255.344z"/>
	<path fill="#A4A4A4" d="M369.641,225.463c0,0.673-0.216,1.213-0.647,1.62c-0.433,0.408-0.984,0.612-1.656,0.612
		c-0.673,0-1.213-0.204-1.62-0.612c-0.408-0.407-0.612-0.947-0.612-1.62c0-0.671,0.204-1.224,0.612-1.656
		c0.407-0.432,0.947-0.648,1.62-0.648c0.672,0,1.224,0.216,1.656,0.648C369.425,224.239,369.641,224.792,369.641,225.463z
		 M368.849,257.359h-2.808v-24.48h2.808V257.359z"/>
	<path fill="#A4A4A4" d="M396.928,257.359h-2.808v-13.853c0-5.836-2.448-8.756-7.345-8.756c-1.969,0-3.732,0.826-5.292,2.477
		c-1.56,1.651-2.34,3.434-2.34,5.347v14.785h-2.808v-18.432c0-1.296-0.169-3.313-0.504-6.049h2.664
		c0.335,1.009,0.527,2.474,0.576,4.393c1.871-3.264,4.631-4.896,8.279-4.896c6.384,0,9.576,3.697,9.576,11.088V257.359z"/>
	<path fill="#A4A4A4" d="M408.952,255.344c0,0.673-0.252,1.248-0.756,1.728c-0.505,0.479-1.093,0.72-1.765,0.72
		c-0.673,0-1.248-0.24-1.728-0.72c-0.48-0.479-0.721-1.055-0.721-1.728c0-0.672,0.24-1.261,0.721-1.765
		c0.479-0.504,1.055-0.756,1.728-0.756c0.672,0,1.26,0.252,1.765,0.756C408.7,254.083,408.952,254.672,408.952,255.344z"/>
	<path fill="#A4A4A4" d="M427.455,255.199l0.288,2.18c-0.961,0.418-2.232,0.629-3.816,0.629c-2.112,0-3.72-0.816-4.824-2.448
		c-0.96-1.44-1.439-3.24-1.439-5.4v-15.048h-4.896v-2.232h4.896v-7.271l2.808-1.296v8.567h7.849v2.232h-7.849v15.029
		c0,3.66,1.225,5.491,3.672,5.491C425.63,255.632,426.735,255.487,427.455,255.199z"/>
	<path fill="#A4A4A4" d="M453.807,243.463v13.896h-2.808v-13.853c0-5.836-2.448-8.756-7.345-8.756c-1.969,0-3.732,0.826-5.292,2.477
		c-1.56,1.651-2.34,3.434-2.34,5.347v14.785h-2.808V221h2.808v16.272c1.968-3.264,4.704-4.896,8.208-4.896
		C450.614,232.375,453.807,236.072,453.807,243.463z"/>
	<path fill="#A4A4A4" d="M17.856,300.879c0,2.064-0.781,3.77-2.34,5.112c-1.561,1.345-3.733,2.017-6.516,2.017
		c-2.401,0-4.705-0.648-6.912-1.944l1.08-2.304c2.304,1.248,4.32,1.872,6.048,1.872c4.032,0,6.048-1.513,6.048-4.536
		c0-2.352-1.897-4.104-5.688-5.256c-4.369-1.344-6.552-3.552-6.552-6.624c0-1.872,0.695-3.48,2.088-4.824
		c1.392-1.344,3.359-2.017,5.904-2.017c2.543,0,4.56,0.553,6.048,1.656l-1.152,2.304c-1.44-1.151-3.24-1.728-5.4-1.728
		c-1.537,0-2.736,0.408-3.6,1.224c-0.864,0.817-1.296,1.825-1.296,3.024c0,1.92,1.883,3.528,5.649,4.824
		C15.659,295.168,17.856,297.567,17.856,300.879z"/>
	<path fill="#A4A4A4" d="M47.16,295.552c0,3.6-0.936,6.528-2.808,8.783c-2.025,2.448-4.748,3.673-8.169,3.673
		c-4.098,0-7.206-1.729-9.327-5.185v16.561h-2.808v-30.385c0-2.783-0.072-4.775-0.216-5.976h2.592
		c0.096,1.249,0.144,2.688,0.144,4.32c2.255-3.313,5.303-4.969,9.144-4.969c3.503,0,6.288,1.213,8.352,3.637
		C46.127,288.436,47.16,291.616,47.16,295.552z M44.568,295.479c0-3.359-0.784-5.987-2.35-7.884
		c-1.566-1.896-3.843-2.845-6.831-2.845c-2.41,0-4.435,0.769-6.073,2.305c-1.639,1.536-2.458,3.456-2.458,5.76v4.104
		c0,2.641,0.939,4.801,2.819,6.48c1.687,1.584,3.687,2.376,6.001,2.376c2.794,0,5.012-0.983,6.651-2.952
		C43.821,300.951,44.568,298.503,44.568,295.479z"/>
	<path fill="#A4A4A4" d="M75.815,295.191c0,3.6-1.128,6.648-3.384,9.144c-2.257,2.497-5.232,3.744-8.928,3.744
		c-3.697,0-6.672-1.247-8.928-3.744c-2.257-2.495-3.384-5.544-3.384-9.144s1.127-6.636,3.384-9.108
		c2.256-2.472,5.231-3.708,8.928-3.708c3.695,0,6.671,1.236,8.928,3.708C74.687,288.556,75.815,291.592,75.815,295.191z
		 M73.007,295.191c0-2.976-0.893-5.46-2.68-7.452c-1.787-1.991-4.062-2.988-6.824-2.988c-2.763,0-5.038,0.997-6.824,2.988
		c-1.787,1.992-2.68,4.477-2.68,7.452c0,2.977,0.893,5.472,2.68,7.488c1.786,2.016,4.061,3.023,6.824,3.023
		c2.763,0,5.038-1.008,6.824-3.023C72.114,300.663,73.007,298.168,73.007,295.191z"/>
	<path fill="#A4A4A4" d="M102.167,307.359h-2.808v-13.853c0-5.836-2.448-8.756-7.344-8.756c-1.969,0-3.733,0.826-5.292,2.477
		c-1.561,1.651-2.34,3.434-2.34,5.347v14.785h-2.808v-18.432c0-1.296-0.169-3.313-0.504-6.049h2.664
		c0.335,1.009,0.528,2.474,0.576,4.393c1.872-3.264,4.632-4.896,8.28-4.896c6.383,0,9.576,3.697,9.576,11.088V307.359z"/>
	<path fill="#A4A4A4" d="M123.767,300.879c0,2.064-0.781,3.77-2.34,5.112c-1.561,1.345-3.733,2.017-6.516,2.017
		c-2.401,0-4.705-0.648-6.912-1.944l1.08-2.304c2.304,1.248,4.32,1.872,6.048,1.872c4.032,0,6.048-1.513,6.048-4.536
		c0-2.352-1.897-4.104-5.688-5.256c-4.369-1.344-6.552-3.552-6.552-6.624c0-1.872,0.695-3.48,2.088-4.824
		c1.392-1.344,3.359-2.017,5.904-2.017c2.543,0,4.56,0.553,6.048,1.656l-1.152,2.304c-1.44-1.151-3.24-1.728-5.4-1.728
		c-1.537,0-2.736,0.408-3.6,1.224c-0.864,0.817-1.296,1.825-1.296,3.024c0,1.92,1.883,3.528,5.649,4.824
		C121.569,295.168,123.767,297.567,123.767,300.879z"/>
	<path fill="#A4A4A4" d="M152.854,295.191c0,3.6-1.128,6.648-3.384,9.144c-2.257,2.497-5.232,3.744-8.928,3.744
		c-3.697,0-6.672-1.247-8.928-3.744c-2.257-2.495-3.384-5.544-3.384-9.144s1.127-6.636,3.384-9.108
		c2.256-2.472,5.231-3.708,8.928-3.708c3.695,0,6.671,1.236,8.928,3.708C151.726,288.556,152.854,291.592,152.854,295.191z
		 M150.046,295.191c0-2.976-0.893-5.46-2.68-7.452c-1.787-1.991-4.062-2.988-6.824-2.988c-2.763,0-5.038,0.997-6.824,2.988
		c-1.787,1.992-2.68,4.477-2.68,7.452c0,2.977,0.893,5.472,2.68,7.488c1.786,2.016,4.061,3.023,6.824,3.023
		c2.763,0,5.038-1.008,6.824-3.023C149.153,300.663,150.046,298.168,150.046,295.191z"/>
	<path fill="#A4A4A4" d="M169.846,284.823c-0.144-0.047-0.432-0.072-0.864-0.072c-3.697,0-6.145,2.313-7.344,6.935
		c-0.144,0.53-0.216,1.35-0.216,2.456v13.218h-2.808v-16.488c0-3.6-0.241-6.264-0.72-7.992h2.376
		c0.528,1.057,0.792,2.689,0.792,4.896c1.536-3.6,4.007-5.4,7.416-5.4c0.432,0,0.888,0.049,1.368,0.145V284.823z"/>
	<path fill="#A4A4A4" d="M207.142,294.688c0,3.265-1.002,6.048-3.006,8.352c-2.004,2.305-4.174,3.528-6.512,3.672l-2.218,0.145
		l-0.716-3.24c-1.921,2.448-4.466,3.672-7.634,3.672c-0.576,0-1.033-0.023-1.368-0.071c-1.537-0.239-2.846-0.907-3.926-2.005
		c-1.08-1.099-1.62-2.364-1.62-3.797c0-5.349,4.799-8.022,14.4-8.022v-0.364c0-4.125-1.944-6.188-5.832-6.188
		c-2.113,0-3.913,0.575-5.4,1.728l-0.792-1.8c1.872-1.392,3.984-2.088,6.336-2.088c5.52,0,8.28,3.049,8.28,9.144v7.704
		c0,1.057,0.094,2.041,0.286,2.952c1.854-0.096,3.542-1.082,5.063-2.961c1.521-1.878,2.283-4.093,2.283-6.645
		c0-3.996-1.245-7.307-3.735-9.931c-2.491-2.623-5.866-3.936-10.127-3.936c-4.502,0-8.237,1.491-11.205,4.474
		c-3.161,3.176-4.741,7.266-4.741,12.269c0,4.138,1.32,7.566,3.96,10.284c2.64,2.717,5.904,4.077,9.792,4.077
		c3.312,0,6.12-0.72,8.424-2.16l1.008,2.088c-2.88,1.536-6.096,2.305-9.648,2.305c-4.512,0-8.364-1.537-11.556-4.608
		c-3.192-3.071-4.788-6.984-4.788-11.736c0-5.23,1.676-9.647,5.03-13.248c3.543-3.839,8.214-5.76,14.011-5.76
		c4.79,0,8.646,1.488,11.568,4.464C205.68,286.432,207.142,290.176,207.142,294.688z M194.542,299.8v-4.393
		c-7.873,0.097-11.808,1.944-11.808,5.544c0,2.88,1.472,4.32,4.419,4.32c3.476,0,5.892-1.512,7.244-4.536
		C194.493,300.544,194.542,300.231,194.542,299.8z"/>
	<path fill="#A4A4A4" d="M230.613,303.903l1.008,2.322c-2.064,1.188-4.584,1.782-7.56,1.782c-4.032,0-7.212-1.164-9.54-3.492
		c-2.329-2.328-3.492-5.437-3.492-9.324s1.164-6.995,3.492-9.324c2.328-2.327,5.508-3.492,9.54-3.492
		c2.976,0,5.496,0.595,7.56,1.782l-1.008,2.322c-1.776-1.152-4.008-1.729-6.696-1.729c-2.928,0-5.34,0.931-7.236,2.789
		c-1.897,1.859-2.844,4.41-2.844,7.651c0,3.242,0.947,5.793,2.844,7.651c1.896,1.859,4.308,2.789,7.236,2.789
		C226.605,305.632,228.837,305.056,230.613,303.903z"/>
	<path fill="#A4A4A4" d="M259.557,295.191c0,3.6-1.128,6.648-3.384,9.144c-2.257,2.497-5.232,3.744-8.928,3.744
		c-3.697,0-6.672-1.247-8.928-3.744c-2.257-2.495-3.384-5.544-3.384-9.144s1.127-6.636,3.384-9.108
		c2.256-2.472,5.231-3.708,8.928-3.708c3.695,0,6.671,1.236,8.928,3.708C258.429,288.556,259.557,291.592,259.557,295.191z
		 M256.749,295.191c0-2.976-0.893-5.46-2.68-7.452c-1.787-1.991-4.062-2.988-6.824-2.988c-2.763,0-5.038,0.997-6.824,2.988
		c-1.787,1.992-2.68,4.477-2.68,7.452c0,2.977,0.893,5.472,2.68,7.488c1.786,2.016,4.061,3.023,6.824,3.023
		c2.763,0,5.038-1.008,6.824-3.023C255.856,300.663,256.749,298.168,256.749,295.191z"/>
	<path fill="#A4A4A4" d="M301.101,307.359h-2.808v-13.493c0-2.774-0.565-4.987-1.692-6.639c-1.128-1.65-2.772-2.477-4.932-2.477
		c-1.872,0-3.517,0.73-4.932,2.189c-1.417,1.46-2.124,3.099-2.124,4.916v15.503h-2.808v-14.785c0-5.215-2.064-7.823-6.192-7.823
		c-1.92,0-3.648,0.826-5.184,2.477c-1.537,1.651-2.304,3.434-2.304,5.347v14.785h-2.808v-18.432c0-1.296-0.169-3.313-0.504-6.049
		h2.664c0.335,1.009,0.528,2.474,0.576,4.393c1.872-3.264,4.608-4.896,8.208-4.896c3.312,0,5.784,1.825,7.416,5.473
		c1.919-3.647,4.848-5.473,8.784-5.473c2.688,0,4.799,1.021,6.336,3.061c1.536,2.041,2.304,4.813,2.304,8.315V307.359z"/>
	<path fill="#A4A4A4" d="M326.373,303.903l1.008,2.322c-2.064,1.188-4.585,1.782-7.56,1.782c-4.032,0-7.212-1.164-9.54-3.492
		c-2.329-2.328-3.492-5.437-3.492-9.324s1.164-6.995,3.492-9.324c2.328-2.327,5.508-3.492,9.54-3.492
		c2.975,0,5.496,0.595,7.56,1.782l-1.008,2.322c-1.776-1.152-4.009-1.729-6.696-1.729c-2.928,0-5.34,0.931-7.236,2.789
		c-1.897,1.859-2.844,4.41-2.844,7.651c0,3.242,0.947,5.793,2.844,7.651c1.896,1.859,4.308,2.789,7.236,2.789
		C322.364,305.632,324.597,305.056,326.373,303.903z"/>
	<path fill="#A4A4A4" d="M350.563,307.359l-2.52,0.504l-1.008-3.96c-2.209,2.736-5.112,4.104-8.712,4.104
		c-2.113,0-3.937-0.598-5.473-1.793c-1.536-1.194-2.304-2.843-2.304-4.945c0-6.068,5.303-9.103,15.912-9.103h0.432v-0.437
		c0-1.599-0.359-3.003-1.08-4.215c-1.104-1.938-2.977-2.908-5.616-2.908c-1.681,0-4.272,0.553-7.775,1.656l-0.36-2.593
		c2.688-0.863,5.473-1.296,8.353-1.296c6.191,0,9.288,3.409,9.288,10.225v8.784C349.7,303.399,349.987,305.392,350.563,307.359z
		 M346.892,299.439v-4.896c-8.928,0-13.392,2.064-13.392,6.192c0,1.584,0.479,2.797,1.439,3.636c0.96,0.841,2.16,1.261,3.601,1.261
		c3.791,0,6.455-1.608,7.992-4.824C346.771,300.279,346.892,299.824,346.892,299.439z"/>
	<path fill="#A4A4A4" d="M392.972,307.359h-2.809v-13.493c0-2.774-0.564-4.987-1.691-6.639c-1.129-1.65-2.772-2.477-4.933-2.477
		c-1.872,0-3.517,0.73-4.932,2.189c-1.416,1.46-2.124,3.099-2.124,4.916v15.503h-2.808v-14.785c0-5.215-2.064-7.823-6.192-7.823
		c-1.921,0-3.648,0.826-5.184,2.477c-1.537,1.651-2.305,3.434-2.305,5.347v14.785h-2.808v-18.432c0-1.296-0.169-3.313-0.504-6.049
		h2.664c0.335,1.009,0.527,2.474,0.576,4.393c1.871-3.264,4.607-4.896,8.208-4.896c3.312,0,5.783,1.825,7.415,5.473
		c1.92-3.647,4.848-5.473,8.784-5.473c2.688,0,4.8,1.021,6.336,3.061c1.536,2.041,2.305,4.813,2.305,8.315V307.359z"/>
	<path fill="#A4A4A4" d="M423.571,295.552c0,3.6-0.937,6.528-2.809,8.783c-2.024,2.448-4.747,3.673-8.17,3.673
		c-4.097,0-7.205-1.729-9.326-5.185v16.561h-2.808v-30.385c0-2.783-0.072-4.775-0.216-5.976h2.592
		c0.096,1.249,0.144,2.688,0.144,4.32c2.256-3.313,5.304-4.969,9.145-4.969c3.503,0,6.287,1.213,8.352,3.637
		C422.538,288.436,423.571,291.616,423.571,295.552z M420.979,295.479c0-3.359-0.784-5.987-2.35-7.884
		c-1.566-1.896-3.843-2.845-6.831-2.845c-2.41,0-4.435,0.769-6.073,2.305s-2.458,3.456-2.458,5.76v4.104
		c0,2.641,0.939,4.801,2.819,6.48c1.687,1.584,3.687,2.376,6.001,2.376c2.794,0,5.012-0.983,6.651-2.952
		C420.231,300.951,420.979,298.503,420.979,295.479z"/>
	<path fill="#A4A4A4" d="M433.866,305.344c0,0.673-0.252,1.248-0.756,1.728c-0.505,0.479-1.093,0.72-1.765,0.72
		c-0.673,0-1.248-0.24-1.728-0.72c-0.48-0.479-0.721-1.055-0.721-1.728c0-0.672,0.24-1.261,0.721-1.765
		c0.479-0.504,1.055-0.756,1.728-0.756c0.672,0,1.26,0.252,1.765,0.756C433.614,304.083,433.866,304.672,433.866,305.344z"/>
	<path fill="#A4A4A4" d="M444.593,275.463c0,0.673-0.216,1.213-0.647,1.62c-0.433,0.409-0.984,0.612-1.656,0.612
		c-0.673,0-1.213-0.203-1.62-0.612c-0.408-0.407-0.612-0.947-0.612-1.62c0-0.671,0.204-1.224,0.612-1.655
		c0.407-0.433,0.947-0.648,1.62-0.648c0.672,0,1.224,0.216,1.656,0.648C444.377,274.239,444.593,274.792,444.593,275.463z
		 M443.801,307.359h-2.808v-24.48h2.808V307.359z"/>
	<path fill="#A4A4A4" d="M471.88,307.359h-2.808v-13.853c0-5.836-2.448-8.756-7.345-8.756c-1.969,0-3.732,0.826-5.292,2.477
		c-1.56,1.651-2.34,3.434-2.34,5.347v14.785h-2.808v-18.432c0-1.296-0.169-3.313-0.504-6.049h2.664
		c0.335,1.009,0.527,2.474,0.576,4.393c1.871-3.264,4.631-4.896,8.279-4.896c6.384,0,9.576,3.697,9.576,11.088V307.359z"/>
	<path fill="#A4A4A4" d="M483.904,305.344c0,0.673-0.252,1.248-0.756,1.728c-0.505,0.479-1.093,0.72-1.765,0.72
		c-0.673,0-1.248-0.24-1.728-0.72c-0.48-0.479-0.721-1.055-0.721-1.728c0-0.672,0.24-1.261,0.721-1.765
		c0.479-0.504,1.055-0.756,1.728-0.756c0.672,0,1.26,0.252,1.765,0.756C483.652,304.083,483.904,304.672,483.904,305.344z"/>
	<path fill="#A4A4A4" d="M502.407,305.199l0.288,2.18c-0.961,0.418-2.232,0.629-3.816,0.629c-2.112,0-3.72-0.816-4.824-2.448
		c-0.96-1.44-1.439-3.24-1.439-5.4v-15.048h-4.896v-2.232h4.896v-7.271l2.808-1.296v8.567h7.849v2.232h-7.849v15.029
		c0,3.66,1.225,5.491,3.672,5.491C500.582,305.632,501.688,305.487,502.407,305.199z"/>
	<path fill="#A4A4A4" d="M528.759,293.463v13.896h-2.808v-13.853c0-5.836-2.448-8.756-7.345-8.756c-1.969,0-3.732,0.826-5.292,2.477
		c-1.56,1.651-2.34,3.434-2.34,5.347v14.785h-2.808v-36.36h2.808v16.272c1.968-3.264,4.704-4.896,8.208-4.896
		C525.566,282.375,528.759,286.072,528.759,293.463z"/>
	<path fill="#A4A4A4" d="M36.504,332.879l-8.784,24.48h-2.448l-7.056-21.6l-7.416,21.6H8.208l-7.992-24.48h2.952l6.48,21.169
		l7.344-21.169h2.664l6.912,21.169l7.128-21.169H36.504z"/>
	<path fill="#A4A4A4" d="M59.903,353.903l0.216,2.376c-2.785,1.152-5.809,1.729-9.072,1.729c-3.744,0-6.78-1.152-9.108-3.456
		c-2.329-2.305-3.492-5.231-3.492-8.784c0-4.032,1.164-7.272,3.492-9.72c2.328-2.448,5.267-3.673,8.82-3.673
		c6.864,0,10.368,4.297,10.512,12.889H41.255c0.096,3.287,1.068,5.836,2.916,7.648c1.847,1.813,4.236,2.72,7.164,2.72
		C54.215,355.632,57.07,355.056,59.903,353.903z M58.607,343.031c-0.048-1.968-0.601-3.719-1.656-5.256
		c-1.44-2.111-3.625-3.168-6.552-3.168c-2.64,0-4.8,0.961-6.48,2.88c-1.344,1.537-2.185,3.384-2.52,5.544H58.607z"/>
	<path fill="#A4A4A4" d="M90.287,344.831c0,3.937-1.033,7.117-3.096,9.54c-2.064,2.425-4.849,3.637-8.352,3.637
		c-3.841,0-6.889-1.656-9.144-4.969c0,1.633-0.048,3.072-0.144,4.32h-2.592c0.144-1.248,0.216-3.24,0.216-5.976v-30.385h2.808
		v16.561c2.112-3.456,5.208-5.185,9.288-5.185c3.408,0,6.095,1.177,8.064,3.528C89.302,338.256,90.287,341.231,90.287,344.831z
		 M87.479,344.903c0-3.024-0.765-5.495-2.295-7.416c-1.53-1.919-3.681-2.88-6.453-2.88c-2.295,0-4.278,0.792-5.951,2.376
		c-1.865,1.681-2.797,3.841-2.797,6.479v4.104c0,2.304,0.813,4.225,2.438,5.76c1.625,1.537,3.633,2.305,6.023,2.305
		C84.467,355.632,87.479,352.056,87.479,344.903z"/>
	<path fill="#A4A4A4" d="M131.83,357.359h-2.808v-13.493c0-2.774-0.565-4.987-1.692-6.639c-1.128-1.65-2.772-2.477-4.932-2.477
		c-1.872,0-3.517,0.73-4.932,2.189c-1.417,1.46-2.124,3.099-2.124,4.916v15.503h-2.808v-14.785c0-5.215-2.064-7.823-6.192-7.823
		c-1.92,0-3.648,0.826-5.184,2.477c-1.537,1.651-2.304,3.434-2.304,5.347v14.785h-2.808v-18.432c0-1.296-0.169-3.313-0.504-6.049
		h2.664c0.335,1.009,0.528,2.474,0.576,4.393c1.872-3.264,4.608-4.896,8.208-4.896c3.312,0,5.784,1.825,7.416,5.473
		c1.919-3.647,4.848-5.473,8.784-5.473c2.688,0,4.799,1.021,6.336,3.061c1.536,2.041,2.304,4.813,2.304,8.315V357.359z"/>
	<path fill="#A4A4A4" d="M157.462,357.359l-2.52,0.504l-1.008-3.96c-2.208,2.736-5.112,4.104-8.712,4.104
		c-2.113,0-3.937-0.598-5.472-1.793c-1.537-1.194-2.304-2.843-2.304-4.945c0-6.068,5.303-9.103,15.912-9.103h0.432v-0.437
		c0-1.599-0.36-3.003-1.08-4.215c-1.105-1.938-2.977-2.908-5.616-2.908c-1.681,0-4.273,0.553-7.776,1.656l-0.36-2.593
		c2.688-0.863,5.472-1.296,8.352-1.296c6.192,0,9.288,3.409,9.288,10.225v8.784C156.598,353.399,156.886,355.392,157.462,357.359z
		 M153.79,349.439v-4.896c-8.928,0-13.392,2.064-13.392,6.192c0,1.584,0.479,2.797,1.44,3.636c0.959,0.841,2.16,1.261,3.6,1.261
		c3.792,0,6.456-1.608,7.992-4.824C153.669,350.279,153.79,349.824,153.79,349.439z"/>
	<path fill="#A4A4A4" d="M178.197,350.879c0,2.064-0.781,3.77-2.34,5.112c-1.561,1.345-3.733,2.017-6.516,2.017
		c-2.401,0-4.705-0.648-6.912-1.944l1.08-2.304c2.304,1.248,4.32,1.872,6.048,1.872c4.032,0,6.048-1.513,6.048-4.536
		c0-2.352-1.897-4.104-5.688-5.256c-4.369-1.344-6.552-3.552-6.552-6.624c0-1.872,0.695-3.48,2.088-4.824
		c1.392-1.344,3.359-2.017,5.904-2.017c2.543,0,4.56,0.553,6.048,1.656l-1.152,2.304c-1.44-1.151-3.24-1.728-5.4-1.728
		c-1.537,0-2.736,0.408-3.6,1.224c-0.864,0.817-1.296,1.825-1.296,3.024c0,1.92,1.883,3.528,5.649,4.824
		C176,345.168,178.197,347.567,178.197,350.879z"/>
	<path fill="#A4A4A4" d="M195.765,355.199l0.288,2.18c-0.961,0.418-2.232,0.629-3.816,0.629c-2.112,0-3.72-0.816-4.824-2.448
		c-0.961-1.44-1.44-3.24-1.44-5.4v-15.048h-4.896v-2.232h4.896v-7.271l2.808-1.296v8.567h7.848v2.232h-7.848v15.029
		c0,3.66,1.224,5.491,3.672,5.491C193.94,355.632,195.045,355.487,195.765,355.199z"/>
	<path fill="#A4A4A4" d="M221.18,353.903l0.216,2.376c-2.785,1.152-5.809,1.729-9.072,1.729c-3.744,0-6.78-1.152-9.108-3.456
		c-2.329-2.305-3.492-5.231-3.492-8.784c0-4.032,1.164-7.272,3.492-9.72c2.328-2.448,5.267-3.673,8.82-3.673
		c6.864,0,10.368,4.297,10.512,12.889h-20.016c0.096,3.287,1.068,5.836,2.916,7.648c1.847,1.813,4.236,2.72,7.164,2.72
		C215.492,355.632,218.348,355.056,221.18,353.903z M219.884,343.031c-0.048-1.968-0.601-3.719-1.656-5.256
		c-1.44-2.111-3.625-3.168-6.552-3.168c-2.64,0-4.8,0.961-6.48,2.88c-1.344,1.537-2.185,3.384-2.52,5.544H219.884z"/>
	<path fill="#A4A4A4" d="M239.684,334.823c-0.144-0.047-0.432-0.072-0.864-0.072c-3.697,0-6.145,2.313-7.344,6.935
		c-0.144,0.53-0.216,1.35-0.216,2.456v13.218h-2.808v-16.488c0-3.6-0.241-6.264-0.72-7.992h2.376
		c0.528,1.057,0.792,2.689,0.792,4.896c1.536-3.6,4.007-5.4,7.416-5.4c0.432,0,0.888,0.049,1.368,0.145V334.823z"/>
	<path fill="#A4A4A4" d="M276.979,344.688c0,3.265-1.002,6.048-3.006,8.352c-2.004,2.305-4.174,3.528-6.512,3.672l-2.218,0.145
		l-0.716-3.24c-1.921,2.448-4.466,3.672-7.634,3.672c-0.576,0-1.033-0.023-1.368-0.071c-1.537-0.239-2.846-0.907-3.926-2.005
		c-1.08-1.099-1.62-2.364-1.62-3.797c0-5.349,4.799-8.022,14.4-8.022v-0.364c0-4.125-1.944-6.188-5.832-6.188
		c-2.113,0-3.913,0.575-5.4,1.728l-0.792-1.8c1.872-1.392,3.984-2.088,6.336-2.088c5.52,0,8.28,3.049,8.28,9.144v7.704
		c0,1.057,0.094,2.041,0.286,2.952c1.854-0.096,3.542-1.082,5.063-2.961c1.521-1.878,2.283-4.093,2.283-6.645
		c0-3.996-1.245-7.307-3.735-9.931c-2.491-2.623-5.866-3.936-10.127-3.936c-4.502,0-8.237,1.491-11.205,4.474
		c-3.161,3.176-4.741,7.266-4.741,12.269c0,4.138,1.32,7.566,3.96,10.284c2.64,2.717,5.904,4.077,9.792,4.077
		c3.312,0,6.12-0.72,8.424-2.16l1.008,2.088c-2.88,1.536-6.096,2.305-9.648,2.305c-4.512,0-8.364-1.537-11.556-4.608
		c-3.192-3.071-4.788-6.984-4.788-11.736c0-5.23,1.676-9.647,5.03-13.248c3.543-3.839,8.214-5.76,14.011-5.76
		c4.79,0,8.646,1.488,11.568,4.464C275.518,336.432,276.979,340.176,276.979,344.688z M264.379,349.8v-4.393
		c-7.873,0.097-11.808,1.944-11.808,5.544c0,2.88,1.472,4.32,4.419,4.32c3.476,0,5.892-1.512,7.244-4.536
		C264.331,350.544,264.379,350.231,264.379,349.8z"/>
	<path fill="#A4A4A4" d="M300.451,353.903l1.008,2.322c-2.064,1.188-4.584,1.782-7.56,1.782c-4.032,0-7.212-1.164-9.54-3.492
		c-2.329-2.328-3.492-5.437-3.492-9.324s1.164-6.995,3.492-9.324c2.328-2.327,5.508-3.492,9.54-3.492
		c2.976,0,5.496,0.595,7.56,1.782l-1.008,2.322c-1.776-1.152-4.008-1.729-6.696-1.729c-2.928,0-5.34,0.931-7.236,2.789
		c-1.897,1.859-2.844,4.41-2.844,7.651c0,3.242,0.947,5.793,2.844,7.651c1.896,1.859,4.308,2.789,7.236,2.789
		C296.443,355.632,298.675,355.056,300.451,353.903z"/>
	<path fill="#A4A4A4" d="M329.395,345.191c0,3.6-1.128,6.648-3.384,9.144c-2.257,2.497-5.232,3.744-8.928,3.744
		c-3.697,0-6.672-1.247-8.928-3.744c-2.257-2.495-3.384-5.544-3.384-9.144s1.127-6.636,3.384-9.108
		c2.256-2.472,5.231-3.708,8.928-3.708c3.695,0,6.671,1.236,8.928,3.708C328.267,338.556,329.395,341.592,329.395,345.191z
		 M326.587,345.191c0-2.976-0.894-5.46-2.68-7.452c-1.786-1.991-4.062-2.988-6.824-2.988c-2.763,0-5.038,0.997-6.824,2.988
		c-1.787,1.992-2.68,4.477-2.68,7.452c0,2.977,0.893,5.472,2.68,7.488c1.786,2.016,4.061,3.023,6.824,3.023
		c2.763,0,5.038-1.008,6.824-3.023C325.693,350.663,326.587,348.168,326.587,345.191z"/>
	<path fill="#A4A4A4" d="M370.938,357.359h-2.809v-13.493c0-2.774-0.564-4.987-1.691-6.639c-1.129-1.65-2.772-2.477-4.933-2.477
		c-1.872,0-3.517,0.73-4.932,2.189c-1.416,1.46-2.124,3.099-2.124,4.916v15.503h-2.808v-14.785c0-5.215-2.064-7.823-6.192-7.823
		c-1.921,0-3.648,0.826-5.184,2.477c-1.537,1.651-2.305,3.434-2.305,5.347v14.785h-2.808v-18.432c0-1.296-0.169-3.313-0.504-6.049
		h2.664c0.335,1.009,0.527,2.474,0.576,4.393c1.871-3.264,4.607-4.896,8.208-4.896c3.312,0,5.783,1.825,7.415,5.473
		c1.92-3.647,4.848-5.473,8.784-5.473c2.688,0,4.8,1.021,6.336,3.061c1.536,2.041,2.305,4.813,2.305,8.315V357.359z"/>
	<path fill="#A4A4A4" d="M396.21,353.903l1.008,2.322c-2.064,1.188-4.585,1.782-7.561,1.782c-4.031,0-7.212-1.164-9.54-3.492
		s-3.491-5.437-3.491-9.324s1.163-6.995,3.491-9.324c2.328-2.327,5.509-3.492,9.54-3.492c2.976,0,5.496,0.595,7.561,1.782
		l-1.008,2.322c-1.776-1.152-4.009-1.729-6.696-1.729c-2.929,0-5.341,0.931-7.236,2.789c-1.896,1.859-2.844,4.41-2.844,7.651
		c0,3.242,0.947,5.793,2.844,7.651c1.896,1.859,4.308,2.789,7.236,2.789C392.201,355.632,394.434,355.056,396.21,353.903z"/>
	<path fill="#A4A4A4" d="M420.401,357.359l-2.52,0.504l-1.008-3.96c-2.209,2.736-5.112,4.104-8.712,4.104
		c-2.113,0-3.937-0.598-5.473-1.793c-1.536-1.194-2.304-2.843-2.304-4.945c0-6.068,5.303-9.103,15.912-9.103h0.432v-0.437
		c0-1.599-0.359-3.003-1.08-4.215c-1.104-1.938-2.977-2.908-5.616-2.908c-1.681,0-4.272,0.553-7.775,1.656l-0.36-2.593
		c2.688-0.863,5.473-1.296,8.353-1.296c6.191,0,9.288,3.409,9.288,10.225v8.784C419.538,353.399,419.825,355.392,420.401,357.359z
		 M416.729,349.439v-4.896c-8.928,0-13.392,2.064-13.392,6.192c0,1.584,0.479,2.797,1.439,3.636c0.96,0.841,2.16,1.261,3.601,1.261
		c3.791,0,6.455-1.608,7.992-4.824C416.609,350.279,416.729,349.824,416.729,349.439z"/>
	<path fill="#A4A4A4" d="M462.81,357.359h-2.809v-13.493c0-2.774-0.564-4.987-1.691-6.639c-1.129-1.65-2.772-2.477-4.933-2.477
		c-1.872,0-3.517,0.73-4.932,2.189c-1.416,1.46-2.124,3.099-2.124,4.916v15.503h-2.808v-14.785c0-5.215-2.064-7.823-6.192-7.823
		c-1.921,0-3.648,0.826-5.184,2.477c-1.537,1.651-2.305,3.434-2.305,5.347v14.785h-2.808v-18.432c0-1.296-0.169-3.313-0.504-6.049
		h2.664c0.335,1.009,0.527,2.474,0.576,4.393c1.871-3.264,4.607-4.896,8.208-4.896c3.312,0,5.783,1.825,7.415,5.473
		c1.92-3.647,4.848-5.473,8.784-5.473c2.688,0,4.8,1.021,6.336,3.061c1.536,2.041,2.305,4.813,2.305,8.315V357.359z"/>
	<path fill="#A4A4A4" d="M493.409,345.552c0,3.6-0.937,6.528-2.809,8.783c-2.024,2.448-4.747,3.673-8.17,3.673
		c-4.097,0-7.205-1.729-9.326-5.185v16.561h-2.808v-30.385c0-2.783-0.072-4.775-0.216-5.976h2.592
		c0.096,1.249,0.144,2.688,0.144,4.32c2.256-3.313,5.304-4.969,9.145-4.969c3.503,0,6.287,1.213,8.352,3.637
		C492.376,338.436,493.409,341.616,493.409,345.552z M490.816,345.479c0-3.359-0.784-5.987-2.35-7.884
		c-1.566-1.896-3.843-2.845-6.831-2.845c-2.41,0-4.435,0.769-6.073,2.305s-2.458,3.456-2.458,5.76v4.104
		c0,2.641,0.939,4.801,2.819,6.48c1.687,1.584,3.687,2.376,6.001,2.376c2.794,0,5.012-0.983,6.651-2.952
		C490.069,350.951,490.816,348.503,490.816,345.479z"/>
	<path fill="#A4A4A4" d="M503.704,355.344c0,0.673-0.252,1.248-0.756,1.728c-0.505,0.479-1.093,0.72-1.765,0.72
		c-0.673,0-1.248-0.24-1.728-0.72c-0.48-0.479-0.721-1.055-0.721-1.728c0-0.672,0.24-1.261,0.721-1.765
		c0.479-0.504,1.055-0.756,1.728-0.756c0.672,0,1.26,0.252,1.765,0.756C503.452,354.083,503.704,354.672,503.704,355.344z"/>
	<path fill="#A4A4A4" d="M514.431,325.463c0,0.673-0.216,1.213-0.647,1.62c-0.433,0.409-0.984,0.612-1.656,0.612
		c-0.673,0-1.213-0.203-1.62-0.612c-0.408-0.407-0.612-0.947-0.612-1.62c0-0.671,0.204-1.224,0.612-1.655
		c0.407-0.433,0.947-0.648,1.62-0.648c0.672,0,1.224,0.216,1.656,0.648C514.215,324.239,514.431,324.792,514.431,325.463z
		 M513.639,357.359h-2.808v-24.48h2.808V357.359z"/>
	<path fill="#A4A4A4" d="M541.718,357.359h-2.808v-13.853c0-5.836-2.448-8.756-7.345-8.756c-1.969,0-3.732,0.826-5.292,2.477
		c-1.56,1.651-2.34,3.434-2.34,5.347v14.785h-2.808v-18.432c0-1.296-0.169-3.313-0.504-6.049h2.664
		c0.335,1.009,0.527,2.474,0.576,4.393c1.871-3.264,4.631-4.896,8.279-4.896c6.384,0,9.576,3.697,9.576,11.088V357.359z"/>
	<path fill="#A4A4A4" d="M553.742,355.344c0,0.673-0.252,1.248-0.756,1.728c-0.505,0.479-1.093,0.72-1.765,0.72
		c-0.673,0-1.248-0.24-1.728-0.72c-0.48-0.479-0.721-1.055-0.721-1.728c0-0.672,0.24-1.261,0.721-1.765
		c0.479-0.504,1.055-0.756,1.728-0.756c0.672,0,1.26,0.252,1.765,0.756C553.49,354.083,553.742,354.672,553.742,355.344z"/>
	<path fill="#A4A4A4" d="M572.245,355.199l0.288,2.18c-0.961,0.418-2.232,0.629-3.816,0.629c-2.112,0-3.72-0.816-4.824-2.448
		c-0.96-1.44-1.439-3.24-1.439-5.4v-15.048h-4.896v-2.232h4.896v-7.271l2.808-1.296v8.567h7.849v2.232h-7.849v15.029
		c0,3.66,1.225,5.491,3.672,5.491C570.42,355.632,571.525,355.487,572.245,355.199z"/>
	<path fill="#A4A4A4" d="M598.597,343.463v13.896h-2.808v-13.853c0-5.836-2.448-8.756-7.345-8.756c-1.969,0-3.732,0.826-5.292,2.477
		c-1.56,1.651-2.34,3.434-2.34,5.347v14.785h-2.808v-36.36h2.808v16.272c1.968-3.264,4.704-4.896,8.208-4.896
		C595.404,332.375,598.597,336.072,598.597,343.463z"/>
</g>
</svg>