<?xml version="1.0" encoding="utf-8"?>
<!-- Generator: Adobe Illustrator 16.0.0, SVG Export Plug-In . SVG Version: 6.00 Build 0)  -->
<!DOCTYPE svg PUBLIC "-//W3C//DTD SVG 1.1//EN" "http://www.w3.org/Graphics/SVG/1.1/DTD/svg11.dtd">
<svg version="1.1" id="Layer_1" xmlns="http://www.w3.org/2000/svg" xmlns:xlink="http://www.w3.org/1999/xlink" x="0px" y="0px"
	 width="279.016px" height="336.917px" viewBox="-1.016 -1.083 279.016 336.917"
	 enable-background="new -1.016 -1.083 279.016 336.917" xml:space="preserve">
<g>
	<path fill="#FFFFFF" d="M128.93,0.18c9.31-1.03,18.75-0.49,28.11-0.4c28.351,2.62,55.88,14.41,77.26,33.24
		c-6.21-0.35-12.05-2.96-18.271-3.23c-2.619-0.08-5.239-0.03-7.85-0.22c-0.341,7.38,0,14.77-0.119,22.16
		c4.078,0.05,7.789,1.83,11.658,2.88c11.57,3.63,21.881,12.18,26.391,23.58c2.881,6.62,3.891,13.88,3.801,21.05
		c0.33,8.03-0.93,16.56-5.71,23.22c-5.28,9.02-14.351,15.28-23.96,18.96c-6.45,2.57-13.48,2.22-20.28,2.3
		c-8.979-0.85-17.989-3.63-25.16-9.27c-11.368-8.59-17.938-22.99-17.149-37.2c1.131-9.9,4.141-19.95,10.619-27.71
		c6.9-8.26,16.26-15.02,27.142-16.55c2.56-0.73,5.601-0.13,7.76-1.91c-0.521-7.18-0.04-14.38-0.521-21.56
		c-25.719,0.47-50.729,12.49-67.851,31.58c-11,11.46-18.81,25.72-23.95,40.69c-2.21,8.32-4.75,16.75-4.48,25.46
		c0.05,13.59-0.95,27.91,5.16,40.48c1.72,3.936,53.42,49.27,73.38,52.669c7.24,0.711,30.68-0.51,35.06-1.34
		c14.91-2.961,30.08-7.221,42.271-16.711c5.81-4.27,10.448-9.85,15.62-14.818c0.078,5.119-4.092,14.369-4.092,14.369
		c-11.869,30.681-35.27,56.479-64.188,72c-12.5,7.031-26.142,11.881-40.13,14.931c-4.75,1.03-9.62,1.37-14.352,2.45
		c-1.738,0.449-1.918,2.51-2.1,3.988c-1.602,9.461,2.84,18.57,2.41,28.012c-0.62,4.3-1.9,9.08-5.801,11.57
		c-3.369,1.838-7.989,1.299-10.759-1.412c-2.82-2.658-3.89-6.588-4.72-10.25c-1.9-9.028,2.96-17.858,1.4-26.89
		c-0.29-2.01-1.66-3.59-2.64-5.28c-3.7,2.86-3.11,7.892-3.48,12.03c-0.2,4.44-4.33,7.7-8.41,8.552
		c-4.39,0.229-9.07-2.17-10.86-6.312c-1.67-3.431-0.57-7.32-1-10.95c-1.92-4.158-5.27-8.09-9.97-9.01
		c-44.22-13.471-80.93-49.74-93.87-94.25c-1.9-7.37-5.3-28.518-5.31-32.93c-0.46-2.391,2.2-31.7,4.88-43.74
		c6.26-23.9,17.54-46.74,34.11-65.18C62.2,23.35,94.19,4.62,128.93,0.18z"/>
</g>
</svg>
